G04 start of page 6 for group 2 layer_idx 10 *
G04 Title: (unknown), top_mask *
G04 Creator: pcb-rnd 2.1.0 *
G04 CreationDate: 2018-12-10 02:10:37 UTC *
G04 For: oscar *
G04 Format: Gerber/RS-274X *
G04 PCB-Dimensions: 244800 394800 *
G04 PCB-Coordinate-Origin: lower left *
%MOIN*%
%FSLAX25Y25*%
%LNTOPMASK*%
%ADD236C,0.0847*%
%ADD235C,0.0610*%
%ADD234C,0.1438*%
%ADD233C,0.0926*%
%ADD232C,0.0860*%
%ADD231C,0.0001*%
G54D231*G36*
X38200Y145000D02*Y153600D01*
X46800D01*
Y145000D01*
X38200D01*
G37*
G54D232*X42500Y189300D03*
Y138800D03*
G54D233*X28000Y143800D03*
G54D231*G36*
X33200Y124100D02*X41800D01*
Y115500D01*
X33200D01*
Y124100D01*
G37*
G54D232*X37500Y109800D03*
Y99800D03*
Y89800D03*
G54D233*X28000Y89300D03*
G54D231*G36*
X23700Y133600D02*X32300D01*
Y125000D01*
X23700D01*
Y133600D01*
G37*
G36*
X46300Y271600D02*Y263000D01*
X37700D01*
Y271600D01*
X46300D01*
G37*
G54D232*X42000Y227300D03*
G54D233*X28000Y218300D03*
G54D234*X42000Y344800D03*
G54D233*Y324800D03*
G54D232*X16500Y378800D03*
G54D231*G36*
X45550Y283750D02*X39450D01*
Y289850D01*
X45550D01*
Y283750D01*
G37*
G54D235*X52500Y296800D03*
X42500Y306800D03*
G54D232*X67500Y119800D03*
Y109800D03*
Y99800D03*
X68000Y129300D03*
G54D231*G36*
X103200Y124100D02*X111800D01*
Y115500D01*
X103200D01*
Y124100D01*
G37*
G54D232*X137500Y119800D03*
X107500Y109800D03*
X137500D03*
X107500Y99800D03*
G54D231*G36*
X98200Y144100D02*X106800D01*
Y135500D01*
X98200D01*
Y144100D01*
G37*
G36*
Y152600D02*X106800D01*
Y144000D01*
X98200D01*
Y152600D01*
G37*
G54D232*X88000Y139300D03*
G54D231*G36*
X82300Y143600D02*Y135000D01*
X73700D01*
Y143600D01*
X82300D01*
G37*
G54D232*X97000Y139300D03*
X116500Y336800D03*
G54D231*G36*
X131300Y341100D02*Y332500D01*
X122700D01*
Y341100D01*
X131300D01*
G37*
G36*
X112200Y292500D02*Y301100D01*
X120800D01*
Y292500D01*
X112200D01*
G37*
G54D232*X127000Y296800D03*
X136500Y297800D03*
X146500D03*
X141500Y307300D03*
Y327300D03*
X137500Y99800D03*
X142500Y139800D03*
Y148300D03*
G54D231*G36*
X132700Y184000D02*Y192600D01*
X141300D01*
Y184000D01*
X132700D01*
G37*
G54D232*X113500Y148300D03*
X128000Y178800D03*
Y158800D03*
X137000Y228300D03*
G54D231*G36*
X132200Y253500D02*Y262100D01*
X140800D01*
Y253500D01*
X132200D01*
G37*
G36*
X142200D02*Y262100D01*
X150800D01*
Y253500D01*
X142200D01*
G37*
G36*
X142700Y184000D02*Y192600D01*
X151300D01*
Y184000D01*
X142700D01*
G37*
G36*
X117800Y192600D02*Y184000D01*
X109200D01*
Y192600D01*
X117800D01*
G37*
G54D232*X147000Y228300D03*
G54D231*G36*
X153200Y232600D02*X161800D01*
Y224000D01*
X153200D01*
Y232600D01*
G37*
G54D232*X157500Y218300D03*
Y208300D03*
G54D236*Y238300D03*
G54D232*Y198300D03*
Y188300D03*
Y178300D03*
Y168300D03*
G54D231*G36*
X153200Y134100D02*X161800D01*
Y125500D01*
X153200D01*
Y134100D01*
G37*
G54D232*X157500Y119800D03*
Y109800D03*
Y99800D03*
G54D231*G36*
X148200Y153600D02*X156800D01*
Y145000D01*
X148200D01*
Y153600D01*
G37*
G36*
Y144600D02*X156800D01*
Y136000D01*
X148200D01*
Y144600D01*
G37*
G36*
X153200Y331600D02*X161800D01*
Y323000D01*
X153200D01*
Y331600D01*
G37*
G54D232*X157500Y317300D03*
Y307300D03*
Y297300D03*
Y287300D03*
Y277300D03*
Y267300D03*
Y257300D03*
G54D236*Y247800D03*
G54D232*X187500Y228300D03*
Y218300D03*
Y208300D03*
G54D231*G36*
X201300Y202600D02*Y194000D01*
X192700D01*
Y202600D01*
X201300D01*
G37*
G54D232*X197000Y158300D03*
G54D231*G36*
X211300Y202600D02*Y194000D01*
X202700D01*
Y202600D01*
X211300D01*
G37*
G54D232*X207000Y158300D03*
X192500Y149300D03*
Y140300D03*
G54D231*G36*
X212200Y194000D02*Y202600D01*
X220800D01*
Y194000D01*
X212200D01*
G37*
G54D232*X216500Y238300D03*
G54D233*X200500Y252800D03*
G54D236*X187500Y247800D03*
Y238300D03*
G54D231*G36*
X222200Y194000D02*Y202600D01*
X230800D01*
Y194000D01*
X222200D01*
G37*
G54D232*X230500Y168800D03*
Y188800D03*
X216500Y168800D03*
Y188800D03*
X226500Y238300D03*
X187500Y198300D03*
Y188300D03*
Y178300D03*
Y168300D03*
Y129800D03*
Y119800D03*
Y109800D03*
Y99800D03*
Y327300D03*
X216500Y336800D03*
X201500Y327300D03*
X231500Y378800D03*
X187500Y317300D03*
Y307300D03*
G54D231*G36*
X212200Y292500D02*Y301100D01*
X220800D01*
Y292500D01*
X212200D01*
G37*
G54D232*X201500Y307300D03*
X187500Y297300D03*
Y287300D03*
Y277300D03*
Y267300D03*
Y257300D03*
X67500Y89800D03*
X88000D03*
X107500D03*
Y79800D03*
Y69800D03*
X98000Y79800D03*
X137500Y89800D03*
Y79800D03*
Y69800D03*
X107500Y59800D03*
X98000D03*
X137500D03*
X157500Y89800D03*
Y79800D03*
Y69800D03*
Y59800D03*
X187500Y89800D03*
Y79800D03*
Y69800D03*
Y59800D03*
X210000Y42800D03*
Y62800D03*
X231500Y13800D03*
G54D233*X210000Y26300D03*
G54D232*X37500Y79800D03*
G54D231*G36*
X68200Y232600D02*X76800D01*
Y224000D01*
X68200D01*
Y232600D01*
G37*
G54D232*X102500Y228300D03*
X72500Y218300D03*
X102500D03*
X67500Y79800D03*
G54D231*G36*
X83700Y95000D02*Y103600D01*
X92300D01*
Y95000D01*
X83700D01*
G37*
G54D232*X78000Y99300D03*
G54D231*G36*
X92700Y95000D02*Y103600D01*
X101300D01*
Y95000D01*
X92700D01*
G37*
G54D232*X67500Y69800D03*
Y59800D03*
G54D231*G36*
X83700Y45500D02*Y54100D01*
X92300D01*
Y45500D01*
X83700D01*
G37*
G36*
X68200Y321100D02*X76800D01*
Y312500D01*
X68200D01*
Y321100D01*
G37*
G54D232*X72500Y306800D03*
Y296800D03*
Y286800D03*
Y276800D03*
Y266800D03*
Y208300D03*
Y256800D03*
G54D231*G36*
X61700Y341100D02*X70300D01*
Y332500D01*
X61700D01*
Y341100D01*
G37*
G36*
X57700Y252500D02*Y261100D01*
X66300D01*
Y252500D01*
X57700D01*
G37*
G54D232*X62000Y296800D03*
X102500Y316800D03*
Y306800D03*
Y296800D03*
Y286800D03*
Y276800D03*
Y266800D03*
Y208300D03*
Y256800D03*
X106000Y336800D03*
X72500Y198300D03*
Y188300D03*
Y178300D03*
Y168300D03*
X62500Y138800D03*
X102500Y198300D03*
Y188300D03*
Y178300D03*
Y168300D03*
X37500Y69800D03*
Y59800D03*
G54D236*X28500Y49800D03*
G54D232*X16000Y13800D03*
M02*
