G04 start of page 11 for group -1 layer_idx 268435461 *
G04 Title: (unknown), <virtual group> *
G04 Creator: pcb-rnd 2.1.0 *
G04 CreationDate: 2018-12-10 02:10:37 UTC *
G04 For: oscar *
G04 Format: Gerber/RS-274X *
G04 PCB-Dimensions: 244800 394800 *
G04 PCB-Coordinate-Origin: lower left *
%MOIN*%
%FSLAX25Y25*%
%LNFAB*%
%ADD255C,0.0100*%
%ADD254C,0.0060*%
%ADD253C,0.0080*%
G54D253*X16500Y378800D02*Y375600D01*
Y378800D02*X19273Y380400D01*
X16500Y378800D02*X13727Y380400D01*
X14900Y378800D02*G75*G03X18100Y378800I1600J0D01*G01*
G75*G03X14900Y378800I-1600J0D01*G01*
X231500D02*Y375600D01*
Y378800D02*X234273Y380400D01*
X231500Y378800D02*X228727Y380400D01*
X229900Y378800D02*G75*G03X233100Y378800I1600J0D01*G01*
G75*G03X229900Y378800I-1600J0D01*G01*
X231500Y13800D02*Y10600D01*
Y13800D02*X234273Y15400D01*
X231500Y13800D02*X228727Y15400D01*
X229900Y13800D02*G75*G03X233100Y13800I1600J0D01*G01*
G75*G03X229900Y13800I-1600J0D01*G01*
X16000D02*Y10600D01*
Y13800D02*X18773Y15400D01*
X16000Y13800D02*X13227Y15400D01*
X14400Y13800D02*G75*G03X17600Y13800I1600J0D01*G01*
G75*G03X14400Y13800I-1600J0D01*G01*
X15000Y406050D02*Y402850D01*
Y406050D02*X17773Y407650D01*
X15000Y406050D02*X12227Y407650D01*
X13400Y406050D02*G75*G03X16600Y406050I1600J0D01*G01*
G75*G03X13400Y406050I-1600J0D01*G01*
G54D254*X135000Y409800D02*X138900Y403800D01*
X142800Y409800D01*
X138900Y403800D01*
Y397800D01*
X152400Y409800D02*X144600D01*
Y403800D01*
X150450D01*
X144600D01*
Y397800D01*
X152400D01*
X154200Y399300D02*X156150Y397800D01*
X160050D01*
X162000Y399300D01*
Y402300D01*
X160050Y403800D01*
X156150D01*
X154200Y405300D01*
Y408300D01*
X156150Y409800D01*
X160050D01*
X162000Y408300D01*
X103850Y397800D02*Y409800D01*
X98000Y400800D01*
X105800D01*
X46950Y397800D02*X45000Y399300D01*
Y408300D01*
X46950Y409800D01*
X50850D01*
X52800Y408300D01*
Y399300D01*
X50850Y397800D01*
X46950D01*
X54600D02*Y399300D01*
X56550D01*
Y397800D01*
X54600D01*
X60300D02*X58350Y399300D01*
Y408300D01*
X60300Y409800D01*
X64200D01*
X66150Y408300D01*
Y399300D01*
X64200Y397800D01*
X60300D01*
X67950Y408300D02*Y409800D01*
X75750D01*
X69900Y397800D01*
X77550Y399300D02*X79500Y397800D01*
X83400D01*
X85350Y399300D01*
Y408300D01*
X83400Y409800D01*
X79500D01*
X77550Y408300D01*
Y403800D01*
X79500Y402300D01*
X83400D01*
X85350Y403800D01*
X40400Y346400D02*X43600D01*
X40400D02*Y343200D01*
X43600D01*
Y346400D02*Y343200D01*
X13400Y422650D02*X16600D01*
X13400D02*Y419450D01*
X16600D01*
Y422650D02*Y419450D01*
X135000Y424800D02*X138900Y418800D01*
X142800Y424800D01*
X138900Y418800D01*
Y412800D01*
X152400Y424800D02*X144600D01*
Y418800D01*
X150450D01*
X144600D01*
Y412800D01*
X152400D01*
X154200Y414300D02*X156150Y412800D01*
X160050D01*
X162000Y414300D01*
Y417300D01*
X160050Y418800D01*
X156150D01*
X154200Y420300D01*
Y423300D01*
X156150Y424800D01*
X160050D01*
X162000Y423300D01*
X98000D02*X99950Y424800D01*
Y412800D01*
X98000D01*
X101900D01*
X46950D02*X45000Y414300D01*
Y423300D01*
X46950Y424800D01*
X50850D01*
X52800Y423300D01*
Y414300D01*
X50850Y412800D01*
X46950D01*
X54600D02*Y414300D01*
X56550D01*
Y412800D01*
X54600D01*
X60300D02*X58350Y414300D01*
Y423300D01*
X60300Y424800D01*
X64200D01*
X66150Y423300D01*
Y414300D01*
X64200Y412800D01*
X60300D01*
X73800D02*Y424800D01*
X67950Y415800D01*
X75750D01*
X77550Y423300D02*Y424800D01*
X85350D01*
X79500Y412800D01*
X41700Y149300D02*G75*G03X43300Y149300I800J0D01*G01*
G75*G03X41700Y149300I-800J0D01*G01*
Y189300D02*G75*G03X43300Y189300I800J0D01*G01*
G75*G03X41700Y189300I-800J0D01*G01*
X36700Y119800D02*G75*G03X38300Y119800I800J0D01*G01*
G75*G03X36700Y119800I-800J0D01*G01*
Y109800D02*G75*G03X38300Y109800I800J0D01*G01*
G75*G03X36700Y109800I-800J0D01*G01*
Y99800D02*G75*G03X38300Y99800I800J0D01*G01*
G75*G03X36700Y99800I-800J0D01*G01*
Y89800D02*G75*G03X38300Y89800I800J0D01*G01*
G75*G03X36700Y89800I-800J0D01*G01*
X27200Y129300D02*G75*G03X28800Y129300I800J0D01*G01*
G75*G03X27200Y129300I-800J0D01*G01*
X41200Y267300D02*G75*G03X42800Y267300I800J0D01*G01*
G75*G03X41200Y267300I-800J0D01*G01*
Y227300D02*G75*G03X42800Y227300I800J0D01*G01*
G75*G03X41200Y227300I-800J0D01*G01*
X66700Y119800D02*G75*G03X68300Y119800I800J0D01*G01*
G75*G03X66700Y119800I-800J0D01*G01*
Y109800D02*G75*G03X68300Y109800I800J0D01*G01*
G75*G03X66700Y109800I-800J0D01*G01*
Y99800D02*G75*G03X68300Y99800I800J0D01*G01*
G75*G03X66700Y99800I-800J0D01*G01*
X67200Y129300D02*G75*G03X68800Y129300I800J0D01*G01*
G75*G03X67200Y129300I-800J0D01*G01*
X106700Y119800D02*G75*G03X108300Y119800I800J0D01*G01*
G75*G03X106700Y119800I-800J0D01*G01*
X136700D02*G75*G03X138300Y119800I800J0D01*G01*
G75*G03X136700Y119800I-800J0D01*G01*
X106700Y109800D02*G75*G03X108300Y109800I800J0D01*G01*
G75*G03X106700Y109800I-800J0D01*G01*
X136700D02*G75*G03X138300Y109800I800J0D01*G01*
G75*G03X136700Y109800I-800J0D01*G01*
X106700Y99800D02*G75*G03X108300Y99800I800J0D01*G01*
G75*G03X106700Y99800I-800J0D01*G01*
X101700Y139800D02*G75*G03X103300Y139800I800J0D01*G01*
G75*G03X101700Y139800I-800J0D01*G01*
Y148300D02*G75*G03X103300Y148300I800J0D01*G01*
G75*G03X101700Y148300I-800J0D01*G01*
X87200Y139300D02*G75*G03X88800Y139300I800J0D01*G01*
G75*G03X87200Y139300I-800J0D01*G01*
X77200D02*G75*G03X78800Y139300I800J0D01*G01*
G75*G03X77200Y139300I-800J0D01*G01*
X96200D02*G75*G03X97800Y139300I800J0D01*G01*
G75*G03X96200Y139300I-800J0D01*G01*
X115700Y336800D02*G75*G03X117300Y336800I800J0D01*G01*
G75*G03X115700Y336800I-800J0D01*G01*
X126200D02*G75*G03X127800Y336800I800J0D01*G01*
G75*G03X126200Y336800I-800J0D01*G01*
X115700Y296800D02*G75*G03X117300Y296800I800J0D01*G01*
G75*G03X115700Y296800I-800J0D01*G01*
X126200D02*G75*G03X127800Y296800I800J0D01*G01*
G75*G03X126200Y296800I-800J0D01*G01*
X135700Y297800D02*G75*G03X137300Y297800I800J0D01*G01*
G75*G03X135700Y297800I-800J0D01*G01*
X145700D02*G75*G03X147300Y297800I800J0D01*G01*
G75*G03X145700Y297800I-800J0D01*G01*
X136700Y99800D02*G75*G03X138300Y99800I800J0D01*G01*
G75*G03X136700Y99800I-800J0D01*G01*
X141700Y139800D02*G75*G03X143300Y139800I800J0D01*G01*
G75*G03X141700Y139800I-800J0D01*G01*
Y148300D02*G75*G03X143300Y148300I800J0D01*G01*
G75*G03X141700Y148300I-800J0D01*G01*
X136200Y188300D02*G75*G03X137800Y188300I800J0D01*G01*
G75*G03X136200Y188300I-800J0D01*G01*
X112700Y148300D02*G75*G03X114300Y148300I800J0D01*G01*
G75*G03X112700Y148300I-800J0D01*G01*
X136200Y228300D02*G75*G03X137800Y228300I800J0D01*G01*
G75*G03X136200Y228300I-800J0D01*G01*
X135700Y257800D02*G75*G03X137300Y257800I800J0D01*G01*
G75*G03X135700Y257800I-800J0D01*G01*
X145700D02*G75*G03X147300Y257800I800J0D01*G01*
G75*G03X145700Y257800I-800J0D01*G01*
X146200Y188300D02*G75*G03X147800Y188300I800J0D01*G01*
G75*G03X146200Y188300I-800J0D01*G01*
X112700D02*G75*G03X114300Y188300I800J0D01*G01*
G75*G03X112700Y188300I-800J0D01*G01*
X146200Y228300D02*G75*G03X147800Y228300I800J0D01*G01*
G75*G03X146200Y228300I-800J0D01*G01*
X156700D02*G75*G03X158300Y228300I800J0D01*G01*
G75*G03X156700Y228300I-800J0D01*G01*
Y218300D02*G75*G03X158300Y218300I800J0D01*G01*
G75*G03X156700Y218300I-800J0D01*G01*
Y208300D02*G75*G03X158300Y208300I800J0D01*G01*
G75*G03X156700Y208300I-800J0D01*G01*
Y198300D02*G75*G03X158300Y198300I800J0D01*G01*
G75*G03X156700Y198300I-800J0D01*G01*
Y188300D02*G75*G03X158300Y188300I800J0D01*G01*
G75*G03X156700Y188300I-800J0D01*G01*
Y178300D02*G75*G03X158300Y178300I800J0D01*G01*
G75*G03X156700Y178300I-800J0D01*G01*
Y168300D02*G75*G03X158300Y168300I800J0D01*G01*
G75*G03X156700Y168300I-800J0D01*G01*
Y129800D02*G75*G03X158300Y129800I800J0D01*G01*
G75*G03X156700Y129800I-800J0D01*G01*
Y119800D02*G75*G03X158300Y119800I800J0D01*G01*
G75*G03X156700Y119800I-800J0D01*G01*
Y109800D02*G75*G03X158300Y109800I800J0D01*G01*
G75*G03X156700Y109800I-800J0D01*G01*
Y99800D02*G75*G03X158300Y99800I800J0D01*G01*
G75*G03X156700Y99800I-800J0D01*G01*
X151700Y149300D02*G75*G03X153300Y149300I800J0D01*G01*
G75*G03X151700Y149300I-800J0D01*G01*
Y140300D02*G75*G03X153300Y140300I800J0D01*G01*
G75*G03X151700Y140300I-800J0D01*G01*
X156700Y327300D02*G75*G03X158300Y327300I800J0D01*G01*
G75*G03X156700Y327300I-800J0D01*G01*
Y317300D02*G75*G03X158300Y317300I800J0D01*G01*
G75*G03X156700Y317300I-800J0D01*G01*
Y307300D02*G75*G03X158300Y307300I800J0D01*G01*
G75*G03X156700Y307300I-800J0D01*G01*
Y297300D02*G75*G03X158300Y297300I800J0D01*G01*
G75*G03X156700Y297300I-800J0D01*G01*
Y287300D02*G75*G03X158300Y287300I800J0D01*G01*
G75*G03X156700Y287300I-800J0D01*G01*
Y277300D02*G75*G03X158300Y277300I800J0D01*G01*
G75*G03X156700Y277300I-800J0D01*G01*
Y267300D02*G75*G03X158300Y267300I800J0D01*G01*
G75*G03X156700Y267300I-800J0D01*G01*
Y257300D02*G75*G03X158300Y257300I800J0D01*G01*
G75*G03X156700Y257300I-800J0D01*G01*
X186700Y228300D02*G75*G03X188300Y228300I800J0D01*G01*
G75*G03X186700Y228300I-800J0D01*G01*
Y218300D02*G75*G03X188300Y218300I800J0D01*G01*
G75*G03X186700Y218300I-800J0D01*G01*
Y208300D02*G75*G03X188300Y208300I800J0D01*G01*
G75*G03X186700Y208300I-800J0D01*G01*
X196200Y198300D02*G75*G03X197800Y198300I800J0D01*G01*
G75*G03X196200Y198300I-800J0D01*G01*
Y158300D02*G75*G03X197800Y158300I800J0D01*G01*
G75*G03X196200Y158300I-800J0D01*G01*
X206200Y198300D02*G75*G03X207800Y198300I800J0D01*G01*
G75*G03X206200Y198300I-800J0D01*G01*
Y158300D02*G75*G03X207800Y158300I800J0D01*G01*
G75*G03X206200Y158300I-800J0D01*G01*
X191700Y149300D02*G75*G03X193300Y149300I800J0D01*G01*
G75*G03X191700Y149300I-800J0D01*G01*
Y140300D02*G75*G03X193300Y140300I800J0D01*G01*
G75*G03X191700Y140300I-800J0D01*G01*
X215700Y198300D02*G75*G03X217300Y198300I800J0D01*G01*
G75*G03X215700Y198300I-800J0D01*G01*
Y238300D02*G75*G03X217300Y238300I800J0D01*G01*
G75*G03X215700Y238300I-800J0D01*G01*
X225700Y198300D02*G75*G03X227300Y198300I800J0D01*G01*
G75*G03X225700Y198300I-800J0D01*G01*
Y238300D02*G75*G03X227300Y238300I800J0D01*G01*
G75*G03X225700Y238300I-800J0D01*G01*
X186700Y198300D02*G75*G03X188300Y198300I800J0D01*G01*
G75*G03X186700Y198300I-800J0D01*G01*
Y188300D02*G75*G03X188300Y188300I800J0D01*G01*
G75*G03X186700Y188300I-800J0D01*G01*
Y178300D02*G75*G03X188300Y178300I800J0D01*G01*
G75*G03X186700Y178300I-800J0D01*G01*
Y168300D02*G75*G03X188300Y168300I800J0D01*G01*
G75*G03X186700Y168300I-800J0D01*G01*
Y129800D02*G75*G03X188300Y129800I800J0D01*G01*
G75*G03X186700Y129800I-800J0D01*G01*
Y119800D02*G75*G03X188300Y119800I800J0D01*G01*
G75*G03X186700Y119800I-800J0D01*G01*
Y109800D02*G75*G03X188300Y109800I800J0D01*G01*
G75*G03X186700Y109800I-800J0D01*G01*
Y99800D02*G75*G03X188300Y99800I800J0D01*G01*
G75*G03X186700Y99800I-800J0D01*G01*
Y327300D02*G75*G03X188300Y327300I800J0D01*G01*
G75*G03X186700Y327300I-800J0D01*G01*
X215700Y336800D02*G75*G03X217300Y336800I800J0D01*G01*
G75*G03X215700Y336800I-800J0D01*G01*
X186700Y317300D02*G75*G03X188300Y317300I800J0D01*G01*
G75*G03X186700Y317300I-800J0D01*G01*
Y307300D02*G75*G03X188300Y307300I800J0D01*G01*
G75*G03X186700Y307300I-800J0D01*G01*
X215700Y296800D02*G75*G03X217300Y296800I800J0D01*G01*
G75*G03X215700Y296800I-800J0D01*G01*
X186700Y297300D02*G75*G03X188300Y297300I800J0D01*G01*
G75*G03X186700Y297300I-800J0D01*G01*
Y287300D02*G75*G03X188300Y287300I800J0D01*G01*
G75*G03X186700Y287300I-800J0D01*G01*
Y277300D02*G75*G03X188300Y277300I800J0D01*G01*
G75*G03X186700Y277300I-800J0D01*G01*
Y267300D02*G75*G03X188300Y267300I800J0D01*G01*
G75*G03X186700Y267300I-800J0D01*G01*
Y257300D02*G75*G03X188300Y257300I800J0D01*G01*
G75*G03X186700Y257300I-800J0D01*G01*
X66700Y89800D02*G75*G03X68300Y89800I800J0D01*G01*
G75*G03X66700Y89800I-800J0D01*G01*
X87200D02*G75*G03X88800Y89800I800J0D01*G01*
G75*G03X87200Y89800I-800J0D01*G01*
X106700D02*G75*G03X108300Y89800I800J0D01*G01*
G75*G03X106700Y89800I-800J0D01*G01*
Y79800D02*G75*G03X108300Y79800I800J0D01*G01*
G75*G03X106700Y79800I-800J0D01*G01*
Y69800D02*G75*G03X108300Y69800I800J0D01*G01*
G75*G03X106700Y69800I-800J0D01*G01*
X136700Y89800D02*G75*G03X138300Y89800I800J0D01*G01*
G75*G03X136700Y89800I-800J0D01*G01*
Y79800D02*G75*G03X138300Y79800I800J0D01*G01*
G75*G03X136700Y79800I-800J0D01*G01*
Y69800D02*G75*G03X138300Y69800I800J0D01*G01*
G75*G03X136700Y69800I-800J0D01*G01*
X106700Y59800D02*G75*G03X108300Y59800I800J0D01*G01*
G75*G03X106700Y59800I-800J0D01*G01*
X136700D02*G75*G03X138300Y59800I800J0D01*G01*
G75*G03X136700Y59800I-800J0D01*G01*
X156700Y89800D02*G75*G03X158300Y89800I800J0D01*G01*
G75*G03X156700Y89800I-800J0D01*G01*
Y79800D02*G75*G03X158300Y79800I800J0D01*G01*
G75*G03X156700Y79800I-800J0D01*G01*
Y69800D02*G75*G03X158300Y69800I800J0D01*G01*
G75*G03X156700Y69800I-800J0D01*G01*
Y59800D02*G75*G03X158300Y59800I800J0D01*G01*
G75*G03X156700Y59800I-800J0D01*G01*
X186700Y89800D02*G75*G03X188300Y89800I800J0D01*G01*
G75*G03X186700Y89800I-800J0D01*G01*
Y79800D02*G75*G03X188300Y79800I800J0D01*G01*
G75*G03X186700Y79800I-800J0D01*G01*
Y69800D02*G75*G03X188300Y69800I800J0D01*G01*
G75*G03X186700Y69800I-800J0D01*G01*
Y59800D02*G75*G03X188300Y59800I800J0D01*G01*
G75*G03X186700Y59800I-800J0D01*G01*
X36700Y79800D02*G75*G03X38300Y79800I800J0D01*G01*
G75*G03X36700Y79800I-800J0D01*G01*
X71700Y228300D02*G75*G03X73300Y228300I800J0D01*G01*
G75*G03X71700Y228300I-800J0D01*G01*
X101700D02*G75*G03X103300Y228300I800J0D01*G01*
G75*G03X101700Y228300I-800J0D01*G01*
X71700Y218300D02*G75*G03X73300Y218300I800J0D01*G01*
G75*G03X71700Y218300I-800J0D01*G01*
X101700D02*G75*G03X103300Y218300I800J0D01*G01*
G75*G03X101700Y218300I-800J0D01*G01*
X66700Y79800D02*G75*G03X68300Y79800I800J0D01*G01*
G75*G03X66700Y79800I-800J0D01*G01*
X87200Y99300D02*G75*G03X88800Y99300I800J0D01*G01*
G75*G03X87200Y99300I-800J0D01*G01*
X77200D02*G75*G03X78800Y99300I800J0D01*G01*
G75*G03X77200Y99300I-800J0D01*G01*
X96200D02*G75*G03X97800Y99300I800J0D01*G01*
G75*G03X96200Y99300I-800J0D01*G01*
X66700Y69800D02*G75*G03X68300Y69800I800J0D01*G01*
G75*G03X66700Y69800I-800J0D01*G01*
Y59800D02*G75*G03X68300Y59800I800J0D01*G01*
G75*G03X66700Y59800I-800J0D01*G01*
X87200Y49800D02*G75*G03X88800Y49800I800J0D01*G01*
G75*G03X87200Y49800I-800J0D01*G01*
X71700Y316800D02*G75*G03X73300Y316800I800J0D01*G01*
G75*G03X71700Y316800I-800J0D01*G01*
Y306800D02*G75*G03X73300Y306800I800J0D01*G01*
G75*G03X71700Y306800I-800J0D01*G01*
Y296800D02*G75*G03X73300Y296800I800J0D01*G01*
G75*G03X71700Y296800I-800J0D01*G01*
Y286800D02*G75*G03X73300Y286800I800J0D01*G01*
G75*G03X71700Y286800I-800J0D01*G01*
Y276800D02*G75*G03X73300Y276800I800J0D01*G01*
G75*G03X71700Y276800I-800J0D01*G01*
Y266800D02*G75*G03X73300Y266800I800J0D01*G01*
G75*G03X71700Y266800I-800J0D01*G01*
Y208300D02*G75*G03X73300Y208300I800J0D01*G01*
G75*G03X71700Y208300I-800J0D01*G01*
Y256800D02*G75*G03X73300Y256800I800J0D01*G01*
G75*G03X71700Y256800I-800J0D01*G01*
X65200Y336800D02*G75*G03X66800Y336800I800J0D01*G01*
G75*G03X65200Y336800I-800J0D01*G01*
X61200Y256800D02*G75*G03X62800Y256800I800J0D01*G01*
G75*G03X61200Y256800I-800J0D01*G01*
Y296800D02*G75*G03X62800Y296800I800J0D01*G01*
G75*G03X61200Y296800I-800J0D01*G01*
X101700Y316800D02*G75*G03X103300Y316800I800J0D01*G01*
G75*G03X101700Y316800I-800J0D01*G01*
Y306800D02*G75*G03X103300Y306800I800J0D01*G01*
G75*G03X101700Y306800I-800J0D01*G01*
Y296800D02*G75*G03X103300Y296800I800J0D01*G01*
G75*G03X101700Y296800I-800J0D01*G01*
Y286800D02*G75*G03X103300Y286800I800J0D01*G01*
G75*G03X101700Y286800I-800J0D01*G01*
Y276800D02*G75*G03X103300Y276800I800J0D01*G01*
G75*G03X101700Y276800I-800J0D01*G01*
Y266800D02*G75*G03X103300Y266800I800J0D01*G01*
G75*G03X101700Y266800I-800J0D01*G01*
Y208300D02*G75*G03X103300Y208300I800J0D01*G01*
G75*G03X101700Y208300I-800J0D01*G01*
Y256800D02*G75*G03X103300Y256800I800J0D01*G01*
G75*G03X101700Y256800I-800J0D01*G01*
X105200Y336800D02*G75*G03X106800Y336800I800J0D01*G01*
G75*G03X105200Y336800I-800J0D01*G01*
X71700Y198300D02*G75*G03X73300Y198300I800J0D01*G01*
G75*G03X71700Y198300I-800J0D01*G01*
Y188300D02*G75*G03X73300Y188300I800J0D01*G01*
G75*G03X71700Y188300I-800J0D01*G01*
Y178300D02*G75*G03X73300Y178300I800J0D01*G01*
G75*G03X71700Y178300I-800J0D01*G01*
Y168300D02*G75*G03X73300Y168300I800J0D01*G01*
G75*G03X71700Y168300I-800J0D01*G01*
X101700Y198300D02*G75*G03X103300Y198300I800J0D01*G01*
G75*G03X101700Y198300I-800J0D01*G01*
Y188300D02*G75*G03X103300Y188300I800J0D01*G01*
G75*G03X101700Y188300I-800J0D01*G01*
Y178300D02*G75*G03X103300Y178300I800J0D01*G01*
G75*G03X101700Y178300I-800J0D01*G01*
Y168300D02*G75*G03X103300Y168300I800J0D01*G01*
G75*G03X101700Y168300I-800J0D01*G01*
X36700Y69800D02*G75*G03X38300Y69800I800J0D01*G01*
G75*G03X36700Y69800I-800J0D01*G01*
Y59800D02*G75*G03X38300Y59800I800J0D01*G01*
G75*G03X36700Y59800I-800J0D01*G01*
X27200Y143800D02*G75*G03X28800Y143800I800J0D01*G01*
G75*G03X27200Y143800I-800J0D01*G01*
Y89300D02*G75*G03X28800Y89300I800J0D01*G01*
G75*G03X27200Y89300I-800J0D01*G01*
Y218300D02*G75*G03X28800Y218300I800J0D01*G01*
G75*G03X27200Y218300I-800J0D01*G01*
X41200Y324800D02*G75*G03X42800Y324800I800J0D01*G01*
G75*G03X41200Y324800I-800J0D01*G01*
X121700Y198800D02*G75*G03X123300Y198800I800J0D01*G01*
G75*G03X121700Y198800I-800J0D01*G01*
Y218800D02*G75*G03X123300Y218800I800J0D01*G01*
G75*G03X121700Y218800I-800J0D01*G01*
X199700Y252800D02*G75*G03X201300Y252800I800J0D01*G01*
G75*G03X199700Y252800I-800J0D01*G01*
X209200Y26300D02*G75*G03X210800Y26300I800J0D01*G01*
G75*G03X209200Y26300I-800J0D01*G01*
X14200Y436050D02*G75*G03X15800Y436050I800J0D01*G01*
G75*G03X14200Y436050I-800J0D01*G01*
X135000Y439800D02*X138900Y433800D01*
X142800Y439800D01*
X138900Y433800D01*
Y427800D01*
X152400Y439800D02*X144600D01*
Y433800D01*
X150450D01*
X144600D01*
Y427800D01*
X152400D01*
X154200Y429300D02*X156150Y427800D01*
X160050D01*
X162000Y429300D01*
Y432300D01*
X160050Y433800D01*
X156150D01*
X154200Y435300D01*
Y438300D01*
X156150Y439800D01*
X160050D01*
X162000Y438300D01*
X98000D02*X99950Y439800D01*
Y427800D01*
X98000D01*
X101900D01*
X103700Y433800D02*X105650Y435300D01*
X109550D01*
X111500Y433800D01*
Y429300D01*
X109550Y427800D01*
X105650D01*
X103700Y429300D01*
Y438300D01*
X105650Y439800D01*
X109550D01*
X111500Y438300D01*
X115250Y427800D02*X113300Y429300D01*
Y438300D01*
X115250Y439800D01*
X119150D01*
X121100Y438300D01*
Y429300D01*
X119150Y427800D01*
X115250D01*
X46950D02*X45000Y429300D01*
Y438300D01*
X46950Y439800D01*
X50850D01*
X52800Y438300D01*
Y429300D01*
X50850Y427800D01*
X46950D01*
X54600D02*Y429300D01*
X56550D01*
Y427800D01*
X54600D01*
X60300D02*X58350Y429300D01*
Y438300D01*
X60300Y439800D01*
X64200D01*
X66150Y438300D01*
Y429300D01*
X64200Y427800D01*
X60300D01*
X67950Y438300D02*X69900Y439800D01*
X73800D01*
X75750Y438300D01*
Y435300D01*
X73800Y433800D01*
X69900D01*
X73800D01*
X75750Y432300D01*
Y429300D01*
X73800Y427800D01*
X69900D01*
X67950Y429300D01*
X77550D02*X79500Y427800D01*
X83400D01*
X85350Y429300D01*
Y438300D01*
X83400Y439800D01*
X79500D01*
X77550Y438300D01*
Y433800D01*
X79500Y432300D01*
X83400D01*
X85350Y433800D01*
X41300Y288000D02*X43700Y285600D01*
X41300D02*X43700Y288000D01*
X51300Y298000D02*X53700Y295600D01*
X51300D02*X53700Y298000D01*
X41300Y308000D02*X43700Y305600D01*
X41300D02*X43700Y308000D01*
X13800Y452250D02*X16200Y449850D01*
X13800D02*X16200Y452250D01*
X135000Y454800D02*X138900Y448800D01*
X142800Y454800D01*
X138900Y448800D01*
Y442800D01*
X152400Y454800D02*X144600D01*
Y448800D01*
X150450D01*
X144600D01*
Y442800D01*
X152400D01*
X154200Y444300D02*X156150Y442800D01*
X160050D01*
X162000Y444300D01*
Y447300D01*
X160050Y448800D01*
X156150D01*
X154200Y450300D01*
Y453300D01*
X156150Y454800D01*
X160050D01*
X162000Y453300D01*
X98000D02*X99950Y454800D01*
X103850D01*
X105800Y453300D01*
Y450300D01*
X103850Y448800D01*
X99950D01*
X103850D01*
X105800Y447300D01*
Y444300D01*
X103850Y442800D01*
X99950D01*
X98000Y444300D01*
X46950Y442800D02*X45000Y444300D01*
Y453300D01*
X46950Y454800D01*
X50850D01*
X52800Y453300D01*
Y444300D01*
X50850Y442800D01*
X46950D01*
X54600D02*Y444300D01*
X56550D01*
Y442800D01*
X54600D01*
X60300D02*X58350Y444300D01*
Y453300D01*
X60300Y454800D01*
X64200D01*
X66150Y453300D01*
Y444300D01*
X64200Y442800D01*
X60300D01*
X67950Y453300D02*X69900Y454800D01*
X73800D01*
X75750Y453300D01*
Y450300D01*
X73800Y448800D01*
X69900D01*
X73800D01*
X75750Y447300D01*
Y444300D01*
X73800Y442800D01*
X69900D01*
X67950Y444300D01*
X77550D02*X79500Y442800D01*
X83400D01*
X85350Y444300D01*
Y448800D01*
X83400Y450300D01*
X77550D01*
Y454800D01*
X85350D01*
X157500Y239900D02*Y236700D01*
X155900Y238300D02*X159100D01*
X157500Y249400D02*Y246200D01*
X155900Y247800D02*X159100D01*
X187500Y249400D02*Y246200D01*
X185900Y247800D02*X189100D01*
X187500Y239900D02*Y236700D01*
X185900Y238300D02*X189100D01*
X28500Y51400D02*Y48200D01*
X26900Y49800D02*X30100D01*
X15000Y467650D02*Y464450D01*
X13400Y466050D02*X16600D01*
X135000Y469800D02*X138900Y463800D01*
X142800Y469800D01*
X138900Y463800D01*
Y457800D01*
X152400Y469800D02*X144600D01*
Y463800D01*
X150450D01*
X144600D01*
Y457800D01*
X152400D01*
X154200Y459300D02*X156150Y457800D01*
X160050D01*
X162000Y459300D01*
Y462300D01*
X160050Y463800D01*
X156150D01*
X154200Y465300D01*
Y468300D01*
X156150Y469800D01*
X160050D01*
X162000Y468300D01*
X98000Y459300D02*X99950Y457800D01*
X103850D01*
X105800Y459300D01*
Y463800D01*
X103850Y465300D01*
X98000D01*
Y469800D01*
X105800D01*
X46950Y457800D02*X45000Y459300D01*
Y468300D01*
X46950Y469800D01*
X50850D01*
X52800Y468300D01*
Y459300D01*
X50850Y457800D01*
X46950D01*
X54600D02*Y459300D01*
X56550D01*
Y457800D01*
X54600D01*
X60300D02*X58350Y459300D01*
Y468300D01*
X60300Y469800D01*
X64200D01*
X66150Y468300D01*
Y459300D01*
X64200Y457800D01*
X60300D01*
X67950Y468300D02*X69900Y469800D01*
X73800D01*
X75750Y468300D01*
Y465300D01*
X73800Y463800D01*
X69900D01*
X73800D01*
X75750Y462300D01*
Y459300D01*
X73800Y457800D01*
X69900D01*
X67950Y459300D01*
X77550Y468300D02*X79500Y469800D01*
X83400D01*
X85350Y468300D01*
Y465300D01*
X77550Y460800D01*
Y457800D01*
X85350D01*
X42500Y138800D02*Y137200D01*
Y138800D02*X43887Y139600D01*
X42500Y138800D02*X41113Y139600D01*
X141500Y307300D02*Y305700D01*
Y307300D02*X142887Y308100D01*
X141500Y307300D02*X140113Y308100D01*
X141500Y327300D02*Y325700D01*
Y327300D02*X142887Y328100D01*
X141500Y327300D02*X140113Y328100D01*
X128000Y178800D02*Y177200D01*
Y178800D02*X129387Y179600D01*
X128000Y178800D02*X126613Y179600D01*
X128000Y158800D02*Y157200D01*
Y158800D02*X129387Y159600D01*
X128000Y158800D02*X126613Y159600D01*
X230500Y168800D02*Y167200D01*
Y168800D02*X231887Y169600D01*
X230500Y168800D02*X229113Y169600D01*
X230500Y188800D02*Y187200D01*
Y188800D02*X231887Y189600D01*
X230500Y188800D02*X229113Y189600D01*
X216500Y168800D02*Y167200D01*
Y168800D02*X217887Y169600D01*
X216500Y168800D02*X215113Y169600D01*
X216500Y188800D02*Y187200D01*
Y188800D02*X217887Y189600D01*
X216500Y188800D02*X215113Y189600D01*
X201500Y327300D02*Y325700D01*
Y327300D02*X202887Y328100D01*
X201500Y327300D02*X200113Y328100D01*
X201500Y307300D02*Y305700D01*
Y307300D02*X202887Y308100D01*
X201500Y307300D02*X200113Y308100D01*
X98000Y79800D02*Y78200D01*
Y79800D02*X99387Y80600D01*
X98000Y79800D02*X96613Y80600D01*
X98000Y59800D02*Y58200D01*
Y59800D02*X99387Y60600D01*
X98000Y59800D02*X96613Y60600D01*
X210000Y42800D02*Y41200D01*
Y42800D02*X211387Y43600D01*
X210000Y42800D02*X208613Y43600D01*
X210000Y62800D02*Y61200D01*
Y62800D02*X211387Y63600D01*
X210000Y62800D02*X208613Y63600D01*
X62500Y138800D02*Y137200D01*
Y138800D02*X63887Y139600D01*
X62500Y138800D02*X61113Y139600D01*
X15000Y481050D02*Y479450D01*
Y481050D02*X16387Y481850D01*
X15000Y481050D02*X13613Y481850D01*
X135000Y484800D02*X138900Y478800D01*
X142800Y484800D01*
X138900Y478800D01*
Y472800D01*
X152400Y484800D02*X144600D01*
Y478800D01*
X150450D01*
X144600D01*
Y472800D01*
X152400D01*
X154200Y474300D02*X156150Y472800D01*
X160050D01*
X162000Y474300D01*
Y477300D01*
X160050Y478800D01*
X156150D01*
X154200Y480300D01*
Y483300D01*
X156150Y484800D01*
X160050D01*
X162000Y483300D01*
X98000D02*X99950Y484800D01*
Y472800D01*
X98000D01*
X101900D01*
X103700Y478800D02*X105650Y480300D01*
X109550D01*
X111500Y478800D01*
Y474300D01*
X109550Y472800D01*
X105650D01*
X103700Y474300D01*
Y483300D01*
X105650Y484800D01*
X109550D01*
X111500Y483300D01*
X46950Y472800D02*X45000Y474300D01*
Y483300D01*
X46950Y484800D01*
X50850D01*
X52800Y483300D01*
Y474300D01*
X50850Y472800D01*
X46950D01*
X54600D02*Y474300D01*
X56550D01*
Y472800D01*
X54600D01*
X60300D02*X58350Y474300D01*
Y483300D01*
X60300Y484800D01*
X64200D01*
X66150Y483300D01*
Y474300D01*
X64200Y472800D01*
X60300D01*
X67950Y483300D02*X69900Y484800D01*
Y472800D01*
X67950D01*
X71850D01*
X73650Y474300D02*X75600Y472800D01*
X79500D01*
X81450Y474300D01*
Y478800D01*
X79500Y480300D01*
X73650D01*
Y484800D01*
X81450D01*
X0Y489300D02*X1950Y487800D01*
X5850D01*
X7800Y489300D01*
Y492300D01*
X5850Y493800D01*
X1950D01*
X0Y495300D01*
Y498300D01*
X1950Y499800D01*
X5850D01*
X7800Y498300D01*
X9600Y481800D02*X13500Y487800D01*
X9600Y495300D01*
X13500Y487800D01*
X17400Y495300D01*
X19200Y487800D02*Y495300D01*
Y493800D01*
X23100Y495300D01*
Y487800D01*
Y493800D01*
X27000Y495300D01*
Y487800D01*
X28800Y499800D02*Y487800D01*
X34650D01*
X36600Y489300D01*
Y493800D01*
X34650Y495300D01*
X28800D01*
X40350Y487800D02*X38400Y489300D01*
Y493800D01*
X40350Y495300D01*
X44250D01*
X46200Y493800D01*
Y489300D01*
X44250Y487800D01*
X40350D01*
X48000Y499800D02*X49950D01*
Y487800D01*
X48000D01*
X51900D01*
X0Y477050D02*X53700D01*
X41000Y487800D02*Y499800D01*
X46850D01*
X48800Y498300D01*
Y489300D01*
X46850Y487800D01*
X41000D01*
X52550Y498300D03*
X50600Y495300D02*X52550D01*
Y487800D01*
X50600D01*
X54500D01*
X64100Y489300D02*X60200Y487800D01*
X58250D01*
X56300Y489300D01*
Y493800D01*
X60200Y495300D01*
X64100D01*
Y487800D01*
X65900D02*Y495300D01*
Y493800D01*
X69800Y495300D01*
Y487800D01*
Y493800D01*
X73700Y495300D01*
Y487800D01*
X75500D02*Y489300D01*
X77450D01*
Y487800D01*
X75500D01*
X84950Y499800D02*X83000Y498300D01*
X81050Y495300D01*
Y492300D01*
X83000Y489300D01*
X84950Y487800D01*
X86750D02*X90650D01*
X88700D01*
Y499800D01*
X86750D01*
X90650D01*
X92450Y487800D02*Y495300D01*
Y493800D01*
X98300Y495300D01*
X100250Y493800D01*
Y487800D01*
X109850Y493800D02*X107900Y495300D01*
X104000D01*
X102050Y493800D01*
Y489300D01*
X104000Y487800D01*
X107900D01*
X109850Y489300D01*
X111650Y487800D02*Y499800D01*
Y495300D01*
X117500D01*
X119450Y493800D01*
Y487800D01*
X121250Y499800D02*X123200Y498300D01*
X125150Y495300D01*
Y492300D01*
X123200Y489300D01*
X121250Y487800D01*
X41000Y477050D02*X126950D01*
X102800Y498300D02*X100850Y499800D01*
X96950D01*
X95000Y498300D01*
Y489300D01*
X96950Y487800D01*
X100850D01*
X102800Y489300D01*
X106550Y487800D02*X104600Y489300D01*
Y493800D01*
X106550Y495300D01*
X110450D01*
X112400Y493800D01*
Y489300D01*
X110450Y487800D01*
X106550D01*
X114200Y495300D02*Y489300D01*
X116150Y487800D01*
X120050D01*
X122000Y489300D01*
Y495300D01*
X123800Y487800D02*Y495300D01*
Y493800D01*
X129650Y495300D01*
X131600Y493800D01*
Y487800D01*
X133400Y495300D02*X139250D01*
X135350D01*
Y498300D01*
Y489300D01*
X137300Y487800D01*
X139250D01*
X141200Y489300D01*
X95000Y477050D02*X143000D01*
X130000Y487800D02*Y499800D01*
X135850D01*
X137800Y498300D01*
Y495300D01*
X135850Y493800D01*
X130000D01*
X139600Y499800D02*X141550D01*
Y487800D01*
X139600D01*
X143500D01*
X153100Y489300D02*X149200Y487800D01*
X147250D01*
X145300Y489300D01*
Y493800D01*
X149200Y495300D01*
X153100D01*
Y487800D01*
X154900Y495300D02*X160750D01*
X156850D01*
Y498300D01*
Y489300D01*
X158800Y487800D01*
X160750D01*
X162700Y489300D01*
X164500Y490800D02*X172300D01*
Y493800D01*
X170350Y495300D01*
X166450D01*
X164500Y493800D01*
Y489300D01*
X166450Y487800D01*
X172300D01*
X181900Y499800D02*Y487800D01*
X176050D01*
X174100Y489300D01*
Y493800D01*
X176050Y495300D01*
X181900D01*
X183700Y498300D02*X185650Y499800D01*
X189550D01*
X191500Y498300D01*
Y495300D01*
X189550Y493800D01*
X187600D01*
Y490800D01*
Y487800D03*
X130000Y477050D02*X193300D01*
X0Y514800D02*X7800D01*
X3900D01*
Y502800D01*
X9600D02*Y514800D01*
Y510300D01*
X15450D01*
X17400Y508800D01*
Y502800D01*
X19200Y505800D02*X27000D01*
Y508800D01*
X25050Y510300D01*
X21150D01*
X19200Y508800D01*
Y504300D01*
X21150Y502800D01*
X27000D01*
X28800D02*Y510300D01*
Y508800D01*
X32700Y510300D01*
X34650D01*
X36600Y508800D01*
X38400Y505800D02*X46200D01*
Y508800D01*
X44250Y510300D01*
X40350D01*
X38400Y508800D01*
Y504300D01*
X40350Y502800D01*
X46200D01*
X57600Y504300D02*X53700Y502800D01*
X51750D01*
X49800Y504300D01*
Y508800D01*
X53700Y510300D01*
X57600D01*
Y502800D01*
X59400D02*Y510300D01*
Y508800D01*
X63300Y510300D01*
X65250D01*
X67200Y508800D01*
X69000Y505800D02*X76800D01*
Y508800D01*
X74850Y510300D01*
X70950D01*
X69000Y508800D01*
Y504300D01*
X70950Y502800D01*
X76800D01*
X80400Y508800D02*X82350Y510300D01*
X86250D01*
X88200Y508800D01*
Y504300D01*
X86250Y502800D01*
X82350D01*
X80400Y504300D01*
Y513300D01*
X82350Y514800D01*
X86250D01*
X88200Y513300D01*
X99600Y514800D02*Y502800D01*
X93750D01*
X91800Y504300D01*
Y508800D01*
X93750Y510300D01*
X99600D01*
X103350Y513300D03*
X101400Y510300D02*X103350D01*
Y502800D01*
X101400D01*
X105300D01*
X109050D02*Y508800D01*
X107100D01*
X112950D01*
X109050D01*
Y513300D01*
X111000Y514800D01*
X112950D01*
X114900Y513300D01*
X118650Y502800D02*Y508800D01*
X116700D01*
X122550D01*
X118650D01*
Y513300D01*
X120600Y514800D01*
X122550D01*
X124500Y513300D01*
X126300Y505800D02*X134100D01*
Y508800D01*
X132150Y510300D01*
X128250D01*
X126300Y508800D01*
Y504300D01*
X128250Y502800D01*
X134100D01*
X135900D02*Y510300D01*
Y508800D01*
X139800Y510300D01*
X141750D01*
X143700Y508800D01*
X145500Y505800D02*X153300D01*
Y508800D01*
X151350Y510300D01*
X147450D01*
X145500Y508800D01*
Y504300D01*
X147450Y502800D01*
X153300D01*
X155100D02*Y510300D01*
Y508800D01*
X160950Y510300D01*
X162900Y508800D01*
Y502800D01*
X164700Y510300D02*X170550D01*
X166650D01*
Y513300D01*
Y504300D01*
X168600Y502800D01*
X170550D01*
X172500Y504300D01*
X183900Y514800D02*Y502800D01*
X178050D01*
X176100Y504300D01*
Y508800D01*
X178050Y510300D01*
X183900D01*
X185700Y502800D02*Y510300D01*
Y508800D01*
X189600Y510300D01*
X191550D01*
X193500Y508800D01*
X197250Y513300D03*
X195300Y510300D02*X197250D01*
Y502800D01*
X195300D01*
X199200D01*
X201000Y514800D02*X202950D01*
Y502800D01*
X201000D01*
X204900D01*
X206700Y514800D02*X208650D01*
Y502800D01*
X206700D01*
X210600D01*
X214200Y504300D02*X216150Y502800D01*
X220050D01*
X222000Y504300D01*
Y505800D01*
X214200Y507300D01*
Y508800D01*
X216150Y510300D01*
X220050D01*
X222000Y508800D01*
X225750Y513300D03*
X223800Y510300D02*X225750D01*
Y502800D01*
X223800D01*
X227700D01*
X229500Y510300D02*X237300D01*
X229500Y502800D01*
X237300D01*
X239100Y505800D02*X246900D01*
Y508800D01*
X244950Y510300D01*
X241050D01*
X239100Y508800D01*
Y504300D01*
X241050Y502800D01*
X246900D01*
X248700Y504300D02*X250650Y502800D01*
X254550D01*
X256500Y504300D01*
Y505800D01*
X248700Y507300D01*
Y508800D01*
X250650Y510300D01*
X254550D01*
X256500Y508800D01*
X260100Y510300D02*Y504300D01*
X262050Y502800D01*
X265950D01*
X267900Y504300D01*
Y510300D01*
X269700Y504300D02*X271650Y502800D01*
X275550D01*
X277500Y504300D01*
Y505800D01*
X269700Y507300D01*
Y508800D01*
X271650Y510300D01*
X275550D01*
X277500Y508800D01*
X279300Y505800D02*X287100D01*
Y508800D01*
X285150Y510300D01*
X281250D01*
X279300Y508800D01*
Y504300D01*
X281250Y502800D01*
X287100D01*
X296700Y514800D02*Y502800D01*
X290850D01*
X288900Y504300D01*
Y508800D01*
X290850Y510300D01*
X296700D01*
X302250Y513300D03*
X300300Y510300D02*X302250D01*
Y502800D01*
X300300D01*
X304200D01*
X306000D02*Y510300D01*
Y508800D01*
X311850Y510300D01*
X313800Y508800D01*
Y502800D01*
X317400Y510300D02*X323250D01*
X319350D01*
Y513300D01*
Y504300D01*
X321300Y502800D01*
X323250D01*
X325200Y504300D01*
X327000Y502800D02*Y514800D01*
Y510300D01*
X332850D01*
X334800Y508800D01*
Y502800D01*
X338550Y513300D03*
X336600Y510300D02*X338550D01*
Y502800D01*
X336600D01*
X340500D01*
X342300Y504300D02*X344250Y502800D01*
X348150D01*
X350100Y504300D01*
Y505800D01*
X342300Y507300D01*
Y508800D01*
X344250Y510300D01*
X348150D01*
X350100Y508800D01*
X353700Y514800D02*X355650D01*
Y502800D01*
X353700D01*
X357600D01*
X367200Y504300D02*X363300Y502800D01*
X361350D01*
X359400Y504300D01*
Y508800D01*
X363300Y510300D01*
X367200D01*
Y502800D01*
X369000Y496800D02*X372900Y502800D01*
X369000Y510300D01*
X372900Y502800D01*
X376800Y510300D01*
X380550Y502800D02*X378600Y504300D01*
Y508800D01*
X380550Y510300D01*
X384450D01*
X386400Y508800D01*
Y504300D01*
X384450Y502800D01*
X380550D01*
X388200Y510300D02*Y504300D01*
X390150Y502800D01*
X394050D01*
X396000Y504300D01*
Y510300D01*
X397800D02*X403650D01*
X399750D01*
Y513300D01*
Y504300D01*
X401700Y502800D01*
X403650D01*
X405600Y504300D01*
X409350Y502800D02*X407400D01*
Y504300D01*
X409350D01*
Y502800D01*
X407400Y501300D01*
X412950Y513300D02*X414900Y514800D01*
Y502800D01*
X412950D01*
X416850D01*
X420600Y508800D02*X418650Y510300D01*
Y513300D01*
X420600Y514800D01*
X424500D01*
X426450Y513300D01*
Y510300D01*
X424500Y508800D01*
X420600D01*
X418650Y507300D01*
Y504300D01*
X420600Y502800D01*
X424500D01*
X426450Y504300D01*
Y507300D01*
X424500Y508800D01*
X428250Y504300D02*X430200Y502800D01*
X434100D01*
X436050Y504300D01*
Y513300D01*
X434100Y514800D01*
X430200D01*
X428250Y513300D01*
Y508800D01*
X430200Y507300D01*
X434100D01*
X436050Y508800D01*
X439650Y502800D02*Y514800D01*
Y510300D01*
X445500D01*
X447450Y508800D01*
Y502800D01*
X451200D02*X449250Y504300D01*
Y508800D01*
X451200Y510300D01*
X455100D01*
X457050Y508800D01*
Y504300D01*
X455100Y502800D01*
X451200D01*
X458850Y514800D02*X460800D01*
Y502800D01*
X458850D01*
X462750D01*
X464550Y505800D02*X472350D01*
Y508800D01*
X470400Y510300D01*
X466500D01*
X464550Y508800D01*
Y504300D01*
X466500Y502800D01*
X472350D01*
X474150Y504300D02*X476100Y502800D01*
X480000D01*
X481950Y504300D01*
Y505800D01*
X474150Y507300D01*
Y508800D01*
X476100Y510300D01*
X480000D01*
X481950Y508800D01*
X485550Y510300D02*X491400D01*
X487500D01*
Y513300D01*
Y504300D01*
X489450Y502800D01*
X491400D01*
X493350Y504300D01*
X497100Y502800D02*X495150Y504300D01*
Y508800D01*
X497100Y510300D01*
X501000D01*
X502950Y508800D01*
Y504300D01*
X501000Y502800D01*
X497100D01*
X504750Y510300D02*X510600D01*
X506700D01*
Y513300D01*
Y504300D01*
X508650Y502800D01*
X510600D01*
X512550Y504300D01*
X522150D02*X518250Y502800D01*
X516300D01*
X514350Y504300D01*
Y508800D01*
X518250Y510300D01*
X522150D01*
Y502800D01*
X523950Y514800D02*X525900D01*
Y502800D01*
X523950D01*
X527850D01*
G54D255*X0Y394800D02*X245000D01*
Y-200D01*
X0D01*
Y394800D01*
G54D254*Y-14000D02*Y-2000D01*
X5850D01*
X7800Y-3500D01*
Y-6500D01*
X5850Y-8000D01*
X0D01*
X5850D01*
X7800Y-9500D01*
Y-12500D01*
X5850Y-14000D01*
X0D01*
X11550D02*X9600Y-12500D01*
Y-8000D01*
X11550Y-6500D01*
X15450D01*
X17400Y-8000D01*
Y-12500D01*
X15450Y-14000D01*
X11550D01*
X27000Y-12500D02*X23100Y-14000D01*
X21150D01*
X19200Y-12500D01*
Y-8000D01*
X23100Y-6500D01*
X27000D01*
Y-14000D01*
X28800D02*Y-6500D01*
Y-8000D01*
X32700Y-6500D01*
X34650D01*
X36600Y-8000D01*
X46200Y-2000D02*Y-14000D01*
X40350D01*
X38400Y-12500D01*
Y-8000D01*
X40350Y-6500D01*
X46200D01*
X51750Y-14000D02*X49800Y-12500D01*
Y-8000D01*
X51750Y-6500D01*
X55650D01*
X57600Y-8000D01*
Y-12500D01*
X55650Y-14000D01*
X51750D01*
X59400Y-6500D02*Y-12500D01*
X61350Y-14000D01*
X65250D01*
X67200Y-12500D01*
Y-6500D01*
X69000D02*X74850D01*
X70950D01*
Y-3500D01*
Y-12500D01*
X72900Y-14000D01*
X74850D01*
X76800Y-12500D01*
X78600Y-2000D02*X80550D01*
Y-14000D01*
X78600D01*
X82500D01*
X86250Y-3500D03*
X84300Y-6500D02*X86250D01*
Y-14000D01*
X84300D01*
X88200D01*
X90000D02*Y-6500D01*
Y-8000D01*
X95850Y-6500D01*
X97800Y-8000D01*
Y-14000D01*
X99600Y-11000D02*X107400D01*
Y-8000D01*
X105450Y-6500D01*
X101550D01*
X99600Y-8000D01*
Y-12500D01*
X101550Y-14000D01*
X107400D01*
X112950Y-3500D03*
X111000Y-6500D02*X112950D01*
Y-14000D01*
X111000D01*
X114900D01*
X116700Y-12500D02*X118650Y-14000D01*
X122550D01*
X124500Y-12500D01*
Y-11000D01*
X116700Y-9500D01*
Y-8000D01*
X118650Y-6500D01*
X122550D01*
X124500Y-8000D01*
X128100Y-6500D02*X133950D01*
X130050D01*
Y-3500D01*
Y-12500D01*
X132000Y-14000D01*
X133950D01*
X135900Y-12500D01*
X137700Y-14000D02*Y-2000D01*
Y-6500D01*
X143550D01*
X145500Y-8000D01*
Y-14000D01*
X147300Y-11000D02*X155100D01*
Y-8000D01*
X153150Y-6500D01*
X149250D01*
X147300Y-8000D01*
Y-12500D01*
X149250Y-14000D01*
X155100D01*
X166500Y-8000D02*X164550Y-6500D01*
X160650D01*
X158700Y-8000D01*
Y-12500D01*
X160650Y-14000D01*
X164550D01*
X166500Y-12500D01*
X168300Y-11000D02*X176100D01*
Y-8000D01*
X174150Y-6500D01*
X170250D01*
X168300Y-8000D01*
Y-12500D01*
X170250Y-14000D01*
X176100D01*
X177900D02*Y-6500D01*
Y-8000D01*
X183750Y-6500D01*
X185700Y-8000D01*
Y-14000D01*
X187500Y-6500D02*X193350D01*
X189450D01*
Y-3500D01*
Y-12500D01*
X191400Y-14000D01*
X193350D01*
X195300Y-12500D01*
X197100Y-11000D02*X204900D01*
Y-8000D01*
X202950Y-6500D01*
X199050D01*
X197100Y-8000D01*
Y-12500D01*
X199050Y-14000D01*
X204900D01*
X206700D02*Y-6500D01*
Y-8000D01*
X210600Y-6500D01*
X212550D01*
X214500Y-8000D01*
X216300Y-2000D02*X218250D01*
Y-14000D01*
X216300D01*
X220200D01*
X223950Y-3500D03*
X222000Y-6500D02*X223950D01*
Y-14000D01*
X222000D01*
X225900D01*
X227700D02*Y-6500D01*
Y-8000D01*
X233550Y-6500D01*
X235500Y-8000D01*
Y-14000D01*
X237300Y-11000D02*X245100D01*
Y-8000D01*
X243150Y-6500D01*
X239250D01*
X237300Y-8000D01*
Y-12500D01*
X239250Y-14000D01*
X245100D01*
X250650D02*X248700Y-12500D01*
Y-8000D01*
X250650Y-6500D01*
X254550D01*
X256500Y-8000D01*
Y-12500D01*
X254550Y-14000D01*
X250650D01*
X260250D02*Y-8000D01*
X258300D01*
X264150D01*
X260250D01*
Y-3500D01*
X262200Y-2000D01*
X264150D01*
X266100Y-3500D01*
X269700Y-6500D02*X275550D01*
X271650D01*
Y-3500D01*
Y-12500D01*
X273600Y-14000D01*
X275550D01*
X277500Y-12500D01*
X279300Y-14000D02*Y-2000D01*
Y-6500D01*
X285150D01*
X287100Y-8000D01*
Y-14000D01*
X290850Y-3500D03*
X288900Y-6500D02*X290850D01*
Y-14000D01*
X288900D01*
X292800D01*
X294600Y-12500D02*X296550Y-14000D01*
X300450D01*
X302400Y-12500D01*
Y-11000D01*
X294600Y-9500D01*
Y-8000D01*
X296550Y-6500D01*
X300450D01*
X302400Y-8000D01*
X306000Y-20000D02*Y-6500D01*
X311850D01*
X313800Y-8000D01*
Y-12500D01*
X311850Y-14000D01*
X306000D01*
X323400Y-12500D02*X319500Y-14000D01*
X317550D01*
X315600Y-12500D01*
Y-8000D01*
X319500Y-6500D01*
X323400D01*
Y-14000D01*
X325200Y-6500D02*X331050D01*
X327150D01*
Y-3500D01*
Y-12500D01*
X329100Y-14000D01*
X331050D01*
X333000Y-12500D01*
X334800Y-14000D02*Y-2000D01*
Y-6500D01*
X340650D01*
X342600Y-8000D01*
Y-14000D01*
X200000Y412800D02*Y424800D01*
X205850D01*
X207800Y423300D01*
Y414300D01*
X205850Y412800D01*
X200000D01*
X217400Y414300D02*X213500Y412800D01*
X211550D01*
X209600Y414300D01*
Y418800D01*
X213500Y420300D01*
X217400D01*
Y412800D01*
X219200Y420300D02*X225050D01*
X221150D01*
Y423300D01*
Y414300D01*
X223100Y412800D01*
X225050D01*
X227000Y414300D01*
X228800Y415800D02*X236600D01*
Y418800D01*
X234650Y420300D01*
X230750D01*
X228800Y418800D01*
Y414300D01*
X230750Y412800D01*
X236600D01*
X238400Y417300D02*X240350D01*
Y418800D01*
X238400D01*
Y417300D01*
Y414300D02*Y412800D01*
X240350D01*
Y414300D01*
X238400D01*
X243950Y423300D02*X245900Y424800D01*
X249800D01*
X251750Y423300D01*
Y420300D01*
X243950Y415800D01*
Y412800D01*
X251750D01*
X255500D02*X253550Y414300D01*
Y423300D01*
X255500Y424800D01*
X259400D01*
X261350Y423300D01*
Y414300D01*
X259400Y412800D01*
X255500D01*
X263150Y423300D02*X265100Y424800D01*
Y412800D01*
X263150D01*
X267050D01*
X270800Y418800D02*X268850Y420300D01*
Y423300D01*
X270800Y424800D01*
X274700D01*
X276650Y423300D01*
Y420300D01*
X274700Y418800D01*
X270800D01*
X268850Y417300D01*
Y414300D01*
X270800Y412800D01*
X274700D01*
X276650Y414300D01*
Y417300D01*
X274700Y418800D01*
X278450D02*X286250D01*
X288050Y423300D02*X290000Y424800D01*
Y412800D01*
X288050D01*
X291950D01*
X293750Y423300D02*X295700Y424800D01*
X299600D01*
X301550Y423300D01*
Y420300D01*
X293750Y415800D01*
Y412800D01*
X301550D01*
X303350Y418800D02*X311150D01*
X312950Y423300D02*X314900Y424800D01*
Y412800D01*
X312950D01*
X316850D01*
X320600D02*X318650Y414300D01*
Y423300D01*
X320600Y424800D01*
X324500D01*
X326450Y423300D01*
Y414300D01*
X324500Y412800D01*
X320600D01*
X332000D02*X330050Y414300D01*
Y423300D01*
X332000Y424800D01*
X335900D01*
X337850Y423300D01*
Y414300D01*
X335900Y412800D01*
X332000D01*
X339650Y423300D02*X341600Y424800D01*
X345500D01*
X347450Y423300D01*
Y420300D01*
X339650Y415800D01*
Y412800D01*
X347450D01*
X349250Y417300D02*X351200D01*
Y418800D01*
X349250D01*
Y417300D01*
Y414300D02*Y412800D01*
X351200D01*
Y414300D01*
X349250D01*
X353000Y423300D02*X354950Y424800D01*
Y412800D01*
X353000D01*
X356900D01*
X360650D02*X358700Y414300D01*
Y423300D01*
X360650Y424800D01*
X364550D01*
X366500Y423300D01*
Y414300D01*
X364550Y412800D01*
X360650D01*
X368300Y417300D02*X370250D01*
Y418800D01*
X368300D01*
Y417300D01*
Y414300D02*Y412800D01*
X370250D01*
Y414300D01*
X368300D01*
X372050Y423300D02*X374000Y424800D01*
X377900D01*
X379850Y423300D01*
Y420300D01*
X377900Y418800D01*
X374000D01*
X377900D01*
X379850Y417300D01*
Y414300D01*
X377900Y412800D01*
X374000D01*
X372050Y414300D01*
X381650Y423300D02*Y424800D01*
X389450D01*
X383600Y412800D01*
X393050Y424800D02*Y414300D01*
X395000Y412800D01*
X398900D01*
X400850Y414300D01*
Y424800D01*
X402650D02*X410450D01*
X406550D01*
Y412800D01*
X420050Y423300D02*X418100Y424800D01*
X414200D01*
X412250Y423300D01*
Y414300D01*
X414200Y412800D01*
X418100D01*
X420050Y414300D01*
X200000Y427800D02*X203900Y439800D01*
X205850Y433800D01*
X201950D01*
X205850D01*
X207800Y427800D01*
X209600Y435300D02*Y429300D01*
X211550Y427800D01*
X215450D01*
X217400Y429300D01*
Y435300D01*
X219200D02*X225050D01*
X221150D01*
Y438300D01*
Y429300D01*
X223100Y427800D01*
X225050D01*
X227000Y429300D01*
X228800Y427800D02*Y439800D01*
Y435300D01*
X234650D01*
X236600Y433800D01*
Y427800D01*
X240350D02*X238400Y429300D01*
Y433800D01*
X240350Y435300D01*
X244250D01*
X246200Y433800D01*
Y429300D01*
X244250Y427800D01*
X240350D01*
X248000D02*Y435300D01*
Y433800D01*
X251900Y435300D01*
X253850D01*
X255800Y433800D01*
X257600Y432300D02*X259550D01*
Y433800D01*
X257600D01*
Y432300D01*
Y429300D02*Y427800D01*
X259550D01*
Y429300D01*
X257600D01*
X265100Y427800D02*X263150Y429300D01*
Y433800D01*
X265100Y435300D01*
X269000D01*
X270950Y433800D01*
Y429300D01*
X269000Y427800D01*
X265100D01*
X272750Y429300D02*X274700Y427800D01*
X278600D01*
X280550Y429300D01*
Y430800D01*
X272750Y432300D01*
Y433800D01*
X274700Y435300D01*
X278600D01*
X280550Y433800D01*
X290150D02*X288200Y435300D01*
X284300D01*
X282350Y433800D01*
Y429300D01*
X284300Y427800D01*
X288200D01*
X290150Y429300D01*
X299750D02*X295850Y427800D01*
X293900D01*
X291950Y429300D01*
Y433800D01*
X295850Y435300D01*
X299750D01*
Y427800D01*
X301550D02*Y435300D01*
Y433800D01*
X305450Y435300D01*
X307400D01*
X309350Y433800D01*
X200000Y454800D02*X207800D01*
X203900D01*
Y442800D01*
X211550Y453300D03*
X209600Y450300D02*X211550D01*
Y442800D01*
X209600D01*
X213500D01*
X215300Y450300D02*X221150D01*
X217250D01*
Y453300D01*
Y444300D01*
X219200Y442800D01*
X221150D01*
X223100Y444300D01*
X224900Y454800D02*X226850D01*
Y442800D01*
X224900D01*
X228800D01*
X230600Y445800D02*X238400D01*
Y448800D01*
X236450Y450300D01*
X232550D01*
X230600Y448800D01*
Y444300D01*
X232550Y442800D01*
X238400D01*
X240200Y447300D02*X242150D01*
Y448800D01*
X240200D01*
Y447300D01*
Y444300D02*Y442800D01*
X242150D01*
Y444300D01*
X240200D01*
X249650Y454800D02*X247700Y453300D01*
X245750Y450300D01*
Y447300D01*
X247700Y444300D01*
X249650Y442800D01*
X251450Y450300D02*Y444300D01*
X253400Y442800D01*
X257300D01*
X259250Y444300D01*
Y450300D01*
X261050Y442800D02*Y450300D01*
Y448800D01*
X266900Y450300D01*
X268850Y448800D01*
Y442800D01*
X270650Y454800D02*Y442800D01*
Y447300D01*
X278450Y450300D01*
X274550Y448800D01*
X278450Y442800D01*
X280250D02*Y450300D01*
Y448800D01*
X286100Y450300D01*
X288050Y448800D01*
Y442800D01*
X291800D02*X289850Y444300D01*
Y448800D01*
X291800Y450300D01*
X295700D01*
X297650Y448800D01*
Y444300D01*
X295700Y442800D01*
X291800D01*
X299450Y450300D02*X301400Y442800D01*
X303350Y450300D01*
X305300Y442800D01*
X307250Y450300D01*
X309050Y442800D02*Y450300D01*
Y448800D01*
X314900Y450300D01*
X316850Y448800D01*
Y442800D01*
X318650Y454800D02*X320600Y453300D01*
X322550Y450300D01*
Y447300D01*
X320600Y444300D01*
X318650Y442800D01*
X326150Y448800D02*X333950D01*
X337550Y442800D02*Y448800D01*
X343400D01*
X337550D01*
Y454800D01*
X345350D01*
X354950Y444300D02*X351050Y442800D01*
X349100D01*
X347150Y444300D01*
Y448800D01*
X351050Y450300D01*
X354950D01*
Y442800D01*
X356750Y454800D02*Y442800D01*
X362600D01*
X364550Y444300D01*
Y448800D01*
X362600Y450300D01*
X356750D01*
X366350Y442800D02*Y450300D01*
Y448800D01*
X370250Y450300D01*
X372200D01*
X374150Y448800D01*
X377900Y453300D03*
X375950Y450300D02*X377900D01*
Y442800D01*
X375950D01*
X379850D01*
X389450Y448800D02*X387500Y450300D01*
X383600D01*
X381650Y448800D01*
Y444300D01*
X383600Y442800D01*
X387500D01*
X389450Y444300D01*
X399050D02*X395150Y442800D01*
X393200D01*
X391250Y444300D01*
Y448800D01*
X395150Y450300D01*
X399050D01*
Y442800D01*
X400850Y450300D02*X406700D01*
X402800D01*
Y453300D01*
Y444300D01*
X404750Y442800D01*
X406700D01*
X408650Y444300D01*
X412400Y453300D03*
X410450Y450300D02*X412400D01*
Y442800D01*
X410450D01*
X414350D01*
X418100D02*X416150Y444300D01*
Y448800D01*
X418100Y450300D01*
X422000D01*
X423950Y448800D01*
Y444300D01*
X422000Y442800D01*
X418100D01*
X425750D02*Y450300D01*
Y448800D01*
X431600Y450300D01*
X433550Y448800D01*
Y442800D01*
X437150D02*Y454800D01*
X443000D01*
X444950Y453300D01*
Y444300D01*
X443000Y442800D01*
X437150D01*
X446750D02*Y450300D01*
Y448800D01*
X450650Y450300D01*
X452600D01*
X454550Y448800D01*
X464150Y444300D02*X460250Y442800D01*
X458300D01*
X456350Y444300D01*
Y448800D01*
X460250Y450300D01*
X464150D01*
Y442800D01*
X465950Y450300D02*X467900Y442800D01*
X469850Y450300D01*
X471800Y442800D01*
X473750Y450300D01*
X477500Y453300D03*
X475550Y450300D02*X477500D01*
Y442800D01*
X475550D01*
X479450D01*
X481250D02*Y450300D01*
Y448800D01*
X487100Y450300D01*
X489050Y448800D01*
Y442800D01*
X490850Y438300D02*X494750Y436800D01*
X496700D01*
X498650Y438300D01*
Y450300D01*
Y448800D01*
X494750Y450300D01*
X492800D01*
X490850Y448800D01*
Y444300D01*
X492800Y442800D01*
X498650D01*
M02*
