G04 start of page 4 for group 7 layer_idx 4 *
G04 Title: (unknown), Intern *
G04 Creator: pcb-rnd 2.1.0 *
G04 CreationDate: 2018-12-10 02:10:37 UTC *
G04 For: oscar *
G04 Format: Gerber/RS-274X *
G04 PCB-Dimensions: 244800 394800 *
G04 PCB-Coordinate-Origin: lower left *
%MOIN*%
%FSLAX25Y25*%
%LNGROUP7*%
%ADD215C,0.0315*%
%ADD214C,0.0350*%
%ADD213C,0.0787*%
%ADD212C,0.0472*%
%ADD211C,0.0394*%
%ADD210C,0.0150*%
%ADD209C,0.0394*%
%ADD208C,0.0787*%
%ADD207C,0.0550*%
%ADD206C,0.1417*%
%ADD205C,0.1378*%
%ADD204C,0.0866*%
%ADD203C,0.0800*%
%ADD202C,0.0001*%
G54D202*G36*
X38500Y145300D02*Y153300D01*
X46500D01*
Y145300D01*
X38500D01*
G37*
G54D203*X42500Y189300D03*
Y138800D03*
G54D204*X28000Y143800D03*
G54D202*G36*
X33500Y123800D02*X41500D01*
Y115800D01*
X33500D01*
Y123800D01*
G37*
G54D203*X37500Y109800D03*
Y99800D03*
Y89800D03*
G54D204*X28000Y89300D03*
G54D202*G36*
X24000Y133300D02*X32000D01*
Y125300D01*
X24000D01*
Y133300D01*
G37*
G36*
X46000Y271300D02*Y263300D01*
X38000D01*
Y271300D01*
X46000D01*
G37*
G54D203*X42000Y227300D03*
G54D204*X28000Y218300D03*
G54D205*X42000Y344800D03*
G54D204*Y324800D03*
G54D206*X16500Y378800D03*
G54D202*G36*
X45250Y284050D02*X39750D01*
Y289550D01*
X45250D01*
Y284050D01*
G37*
G54D207*X52500Y296800D03*
X42500Y306800D03*
G54D203*X67500Y119800D03*
Y109800D03*
Y99800D03*
X68000Y129300D03*
G54D202*G36*
X103500Y123800D02*X111500D01*
Y115800D01*
X103500D01*
Y123800D01*
G37*
G54D203*X137500Y119800D03*
X107500Y109800D03*
X137500D03*
X107500Y99800D03*
G54D202*G36*
X98500Y143800D02*X106500D01*
Y135800D01*
X98500D01*
Y143800D01*
G37*
G36*
Y152300D02*X106500D01*
Y144300D01*
X98500D01*
Y152300D01*
G37*
G54D203*X88000Y139300D03*
G54D202*G36*
X82000Y143300D02*Y135300D01*
X74000D01*
Y143300D01*
X82000D01*
G37*
G54D203*X97000Y139300D03*
X116500Y336800D03*
G54D202*G36*
X131000Y340800D02*Y332800D01*
X123000D01*
Y340800D01*
X131000D01*
G37*
G36*
X112500Y292800D02*Y300800D01*
X120500D01*
Y292800D01*
X112500D01*
G37*
G54D203*X127000Y296800D03*
X136500Y297800D03*
X146500D03*
X141500Y307300D03*
Y327300D03*
X137500Y99800D03*
X142500Y139800D03*
Y148300D03*
G54D202*G36*
X133000Y184300D02*Y192300D01*
X141000D01*
Y184300D01*
X133000D01*
G37*
G54D203*X113500Y148300D03*
G54D204*X122500Y198800D03*
G54D203*X128000Y178800D03*
Y158800D03*
X137000Y228300D03*
G54D202*G36*
X132500Y253800D02*Y261800D01*
X140500D01*
Y253800D01*
X132500D01*
G37*
G36*
X142500D02*Y261800D01*
X150500D01*
Y253800D01*
X142500D01*
G37*
G36*
X143000Y184300D02*Y192300D01*
X151000D01*
Y184300D01*
X143000D01*
G37*
G36*
X117500Y192300D02*Y184300D01*
X109500D01*
Y192300D01*
X117500D01*
G37*
G54D203*X147000Y228300D03*
G54D204*X122500Y218800D03*
G54D202*G36*
X153500Y232300D02*X161500D01*
Y224300D01*
X153500D01*
Y232300D01*
G37*
G54D203*X157500Y218300D03*
Y208300D03*
G54D208*Y238300D03*
G54D203*Y198300D03*
Y188300D03*
Y178300D03*
Y168300D03*
G54D202*G36*
X153500Y133800D02*X161500D01*
Y125800D01*
X153500D01*
Y133800D01*
G37*
G54D203*X157500Y119800D03*
Y109800D03*
Y99800D03*
G54D202*G36*
X148500Y153300D02*X156500D01*
Y145300D01*
X148500D01*
Y153300D01*
G37*
G36*
Y144300D02*X156500D01*
Y136300D01*
X148500D01*
Y144300D01*
G37*
G36*
X153500Y331300D02*X161500D01*
Y323300D01*
X153500D01*
Y331300D01*
G37*
G54D203*X157500Y317300D03*
Y307300D03*
Y297300D03*
Y287300D03*
Y277300D03*
Y267300D03*
Y257300D03*
G54D208*Y247800D03*
G54D203*X187500Y228300D03*
Y218300D03*
Y208300D03*
G54D202*G36*
X201000Y202300D02*Y194300D01*
X193000D01*
Y202300D01*
X201000D01*
G37*
G54D203*X197000Y158300D03*
G54D202*G36*
X211000Y202300D02*Y194300D01*
X203000D01*
Y202300D01*
X211000D01*
G37*
G54D203*X207000Y158300D03*
X192500Y149300D03*
Y140300D03*
G54D202*G36*
X212500Y194300D02*Y202300D01*
X220500D01*
Y194300D01*
X212500D01*
G37*
G54D203*X216500Y238300D03*
G54D204*X200500Y252800D03*
G54D208*X187500Y247800D03*
Y238300D03*
G54D202*G36*
X222500Y194300D02*Y202300D01*
X230500D01*
Y194300D01*
X222500D01*
G37*
G54D203*X230500Y168800D03*
Y188800D03*
X216500Y168800D03*
Y188800D03*
X226500Y238300D03*
X187500Y198300D03*
Y188300D03*
Y178300D03*
Y168300D03*
Y129800D03*
Y119800D03*
Y109800D03*
Y99800D03*
Y327300D03*
X216500Y336800D03*
X201500Y327300D03*
G54D206*X231500Y378800D03*
G54D203*X187500Y317300D03*
Y307300D03*
G54D202*G36*
X212500Y292800D02*Y300800D01*
X220500D01*
Y292800D01*
X212500D01*
G37*
G54D203*X201500Y307300D03*
X187500Y297300D03*
Y287300D03*
Y277300D03*
Y267300D03*
Y257300D03*
X67500Y89800D03*
X88000D03*
X107500D03*
Y79800D03*
Y69800D03*
X98000Y79800D03*
X137500Y89800D03*
Y79800D03*
Y69800D03*
X107500Y59800D03*
X98000D03*
X137500D03*
X157500Y89800D03*
Y79800D03*
Y69800D03*
Y59800D03*
X187500Y89800D03*
Y79800D03*
Y69800D03*
Y59800D03*
X210000Y42800D03*
Y62800D03*
G54D206*X231500Y13800D03*
G54D204*X210000Y26300D03*
G54D203*X37500Y79800D03*
G54D202*G36*
X68500Y232300D02*X76500D01*
Y224300D01*
X68500D01*
Y232300D01*
G37*
G54D203*X102500Y228300D03*
X72500Y218300D03*
X102500D03*
X67500Y79800D03*
G54D202*G36*
X84000Y95300D02*Y103300D01*
X92000D01*
Y95300D01*
X84000D01*
G37*
G54D203*X78000Y99300D03*
G54D202*G36*
X93000Y95300D02*Y103300D01*
X101000D01*
Y95300D01*
X93000D01*
G37*
G54D203*X67500Y69800D03*
Y59800D03*
G54D202*G36*
X84000Y45800D02*Y53800D01*
X92000D01*
Y45800D01*
X84000D01*
G37*
G36*
X68500Y320800D02*X76500D01*
Y312800D01*
X68500D01*
Y320800D01*
G37*
G54D203*X72500Y306800D03*
Y296800D03*
Y286800D03*
Y276800D03*
Y266800D03*
Y208300D03*
Y256800D03*
G54D202*G36*
X62000Y340800D02*X70000D01*
Y332800D01*
X62000D01*
Y340800D01*
G37*
G36*
X58000Y252800D02*Y260800D01*
X66000D01*
Y252800D01*
X58000D01*
G37*
G54D203*X62000Y296800D03*
X102500Y316800D03*
Y306800D03*
Y296800D03*
Y286800D03*
Y276800D03*
Y266800D03*
Y208300D03*
Y256800D03*
X106000Y336800D03*
X72500Y198300D03*
Y188300D03*
Y178300D03*
Y168300D03*
X62500Y138800D03*
X102500Y198300D03*
Y188300D03*
Y178300D03*
Y168300D03*
X37500Y69800D03*
Y59800D03*
G54D208*X28500Y49800D03*
G54D206*X16000Y13800D03*
G54D209*G54D210*G54D211*G54D209*G54D211*G54D209*G54D211*G54D212*G54D211*G54D213*G54D214*G54D209*G54D210*G54D209*G54D211*G54D210*G54D209*G54D211*G54D209*G54D215*G54D209*G54D215*G54D209*G54D211*G54D215*G54D209*G54D210*G54D209*G54D210*G54D213*G54D209*G54D210*G54D209*G54D210*G54D209*G54D210*G54D209*G54D210*G54D213*G54D211*G54D209*G54D210*G54D209*G54D215*G54D213*M02*
