M48
INCH
T261C0.032
T260C0.035
T259C0.079
T258C0.047
T257C0.015
T256C0.039
%
T257
G05
X004250Y013880
X014150Y030730
X014150Y032730
X012800Y017880
X012800Y015880
X023050Y016880
X023050Y018880
X021650Y016880
X021650Y018880
X020150Y032730
X020150Y030730
X009800Y007980
X009800Y005980
X021000Y004280
X021000Y006280
X006250Y013880
T261
X015750Y023830
X015750Y024780
X018750Y024780
X018750Y023830
X002850Y004980
T260
X004250Y028680
X005250Y029680
X004250Y030680
T256
X004250Y014930
X004250Y018930
X002800Y014380
X003750Y011980
X003750Y010980
X003750Y009980
X003750Y008980
X002800Y008930
X002800Y012930
X004200Y026730
X004200Y022730
X002800Y021830
X004200Y032480
X006750Y011980
X006750Y010980
X006750Y009980
X006800Y012930
X010750Y011980
X013750Y011980
X010750Y010980
X013750Y010980
X010750Y009980
X010250Y013980
X010250Y014830
X008800Y013930
X007800Y013930
X009700Y013930
X011650Y033680
X012700Y033680
X011650Y029680
X012700Y029680
X013650Y029780
X014650Y029780
X013750Y009980
X014250Y013980
X014250Y014830
X013700Y018830
X011350Y014830
X012250Y019880
X013700Y022830
X013650Y025780
X014650Y025780
X014700Y018830
X011350Y018830
X014700Y022830
X012250Y021880
X015750Y022830
X015750Y021830
X015750Y020830
X015750Y019830
X015750Y018830
X015750Y017830
X015750Y016830
X015750Y012980
X015750Y011980
X015750Y010980
X015750Y009980
X015250Y014930
X015250Y014030
X015750Y032730
X015750Y031730
X015750Y030730
X015750Y029730
X015750Y028730
X015750Y027730
X015750Y026730
X015750Y025730
X018750Y022830
X018750Y021830
X018750Y020830
X019700Y019830
X019700Y015830
X020700Y019830
X020700Y015830
X019250Y014930
X019250Y014030
X021650Y019830
X021650Y023830
X020050Y025280
X022650Y019830
X022650Y023830
X018750Y019830
X018750Y018830
X018750Y017830
X018750Y016830
X018750Y012980
X018750Y011980
X018750Y010980
X018750Y009980
X018750Y032730
X021650Y033680
X018750Y031730
X018750Y030730
X021650Y029680
X018750Y029730
X018750Y028730
X018750Y027730
X018750Y026730
X018750Y025730
X006750Y008980
X008800Y008980
X010750Y008980
X010750Y007980
X010750Y006980
X013750Y008980
X013750Y007980
X013750Y006980
X010750Y005980
X013750Y005980
X015750Y008980
X015750Y007980
X015750Y006980
X015750Y005980
X018750Y008980
X018750Y007980
X018750Y006980
X018750Y005980
X021000Y002630
X003750Y007980
X007250Y022830
X010250Y022830
X007250Y021830
X010250Y021830
X006750Y007980
X008800Y009930
X007800Y009930
X009700Y009930
X006750Y006980
X006750Y005980
X008800Y004980
X007250Y031680
X007250Y030680
X007250Y029680
X007250Y028680
X007250Y027680
X007250Y026680
X007250Y020830
X007250Y025680
X006600Y033680
X006200Y025680
X006200Y029680
X010250Y031680
X010250Y030680
X010250Y029680
X010250Y028680
X010250Y027680
X010250Y026680
X010250Y020830
X010250Y025680
X010600Y033680
X007250Y019830
X007250Y018830
X007250Y017830
X007250Y016830
X010250Y019830
X010250Y018830
X010250Y017830
X010250Y016830
X003750Y006980
X003750Y005980
T258
X004200Y034480
T259
X001650Y037880
X023150Y037880
X023150Y001380
X001600Y001380
M30
