G04 start of page 8 for group 1 layer_idx 8 *
G04 Title: (unknown), top_silk *
G04 Creator: pcb-rnd 2.1.0 *
G04 CreationDate: 2018-12-10 02:10:37 UTC *
G04 For: oscar *
G04 Format: Gerber/RS-274X *
G04 PCB-Dimensions: 244800 394800 *
G04 PCB-Coordinate-Origin: lower left *
%MOIN*%
%FSLAX25Y25*%
%LNTOPSILK*%
%ADD245C,0.0070*%
%ADD244C,0.0150*%
%ADD243C,0.0100*%
G54D243*X32500Y124800D02*Y54800D01*
Y124800D02*X47500D01*
X57500D02*X72500D01*
X28000Y129300D02*X38000D01*
X58000D02*X68000D01*
X58000Y125967D02*X38000D01*
X102500Y124800D02*X117500D01*
X88000Y99300D02*Y109300D01*
X84667D02*X91333D01*
X78000D02*Y99300D01*
X97000D02*Y112633D01*
X90334D02*X103666D01*
X72500Y54800D02*Y124800D01*
X91333Y79800D02*X84667D01*
X74667Y109300D02*X81333D01*
X90334Y125966D02*X103666D01*
X90334D02*X97000Y112633D01*
X103666Y125966D02*X97000Y112633D01*
G54D244*X98000Y67800D02*Y59800D01*
Y79800D02*Y71800D01*
X93000Y67800D02*X103000D01*
X93000Y71800D02*X103000D01*
G54D243*X88000Y49800D02*Y59800D01*
Y79800D02*Y89800D01*
X84667Y59800D02*X91333D01*
X84667D02*Y79800D01*
X91333D02*Y59800D01*
X88000Y129300D02*Y139300D01*
X78000D02*Y129300D01*
X97000Y125966D02*Y139300D01*
X84667Y109300D02*Y129300D01*
X81333D02*Y109300D01*
X74667D02*Y129300D01*
X91333D02*Y109300D01*
Y129300D02*X84667D01*
X81333D02*X74667D01*
X127500Y124800D02*X142500D01*
X72500Y54800D02*X32500D01*
X102500Y124800D02*Y54800D01*
X142500D02*X102500D01*
X142500D02*Y124800D01*
X38000Y132633D02*Y125967D01*
Y132633D02*X58000D01*
Y125967D02*Y132633D01*
X152500Y134800D02*Y54800D01*
X192500D02*X152500D01*
G54D244*X210000Y50800D02*Y42800D01*
Y62800D02*Y54800D01*
X205000Y50800D02*X215000D01*
X205000Y54800D02*X215000D01*
G54D243*X192500D02*Y134800D01*
X102500Y139800D02*X112500D01*
Y143133D02*Y136467D01*
Y143133D02*X132500D01*
Y139800D02*X142500D01*
X132500Y136467D02*X112500D01*
X132500D02*Y143133D01*
Y144967D02*X112500D01*
G54D244*X50500Y138800D02*X42500D01*
X62500D02*X54500D01*
X50500Y143800D02*Y133800D01*
X54500Y143800D02*Y133800D01*
G54D243*X152500Y134800D02*X167500D01*
X177500D02*X192500D01*
X102500Y148300D02*X112500D01*
X42500Y149300D02*Y159300D01*
X39167D02*X45833D01*
X120166Y161634D02*X106834D01*
G54D244*X118000Y156300D02*X123000D01*
X120500Y153800D02*Y158800D01*
G54D243*X132500Y148300D02*X142500D01*
X132500Y144967D02*Y151633D01*
X179166Y155966D02*Y142634D01*
Y155966D02*X165833Y149300D01*
X179166Y142634D02*X165833Y149300D01*
Y155966D02*Y142634D01*
X152500Y140300D02*X165833D01*
X179166Y146966D02*X165833Y140300D01*
X179166D02*X192500D01*
X179166Y146966D02*Y133634D01*
X165833Y140300D01*
Y146966D02*Y133634D01*
X112500Y151633D02*Y144967D01*
X113500Y161634D02*Y148300D01*
X112500Y151633D02*X132500D01*
X152500Y149300D02*X165833D01*
X179166D02*X192500D01*
X67500Y321800D02*Y251800D01*
Y321800D02*X82500D01*
X66000Y336800D02*X76000D01*
Y340133D02*Y333467D01*
X67500Y233300D02*Y163300D01*
X192500D02*Y233300D01*
X152500D02*X167500D01*
X177500D02*X192500D01*
Y252300D02*X152500D01*
X197000Y168300D02*Y158300D01*
X193667Y168300D02*Y188300D01*
X137000Y218300D02*Y228300D01*
X133667Y198300D02*Y218300D01*
X140333D02*Y198300D01*
Y218300D02*X133667D01*
X147000D02*Y228300D01*
X133667Y198300D02*X140333D01*
X143667D02*Y218300D01*
X152500Y233300D02*Y163300D01*
X137000Y188300D02*Y198300D01*
X147000Y188300D02*Y198300D01*
X143667D02*X150333D01*
Y218300D02*Y198300D01*
Y218300D02*X143667D01*
G54D244*X135500Y168800D02*Y166300D01*
G54D243*X113500Y188300D02*Y174967D01*
X120166Y161634D02*X113500Y174967D01*
G54D244*X120500Y171300D02*X135500D01*
X120500Y168800D02*X135500D01*
Y166300D02*X120500D01*
Y168800D01*
X128000Y166300D02*Y158800D01*
Y171300D02*Y178800D01*
G54D243*X107500Y163300D02*X67500D01*
X106834Y161634D02*X113500Y174967D01*
X120166D02*X106834D01*
X192500Y163300D02*X152500D01*
X197000Y198300D02*Y188300D01*
X200333D02*X193667D01*
X200333D02*Y168300D01*
X193667D02*X200333D01*
X203667D02*Y188300D01*
X216500Y228300D02*Y238300D01*
X213167Y208300D02*Y228300D01*
X219833D02*Y208300D01*
Y228300D02*X213167D01*
X207000Y198300D02*Y188300D01*
X216500Y198300D02*Y208300D01*
X213167D02*X219833D01*
X226500Y198300D02*Y208300D01*
X229833Y228300D02*Y208300D01*
X226500Y228300D02*Y238300D01*
X229833Y228300D02*X223167D01*
Y208300D02*X229833D01*
X223167D02*Y228300D01*
X207000Y168300D02*Y158300D01*
X203667Y168300D02*X210333D01*
Y188300D02*X203667D01*
X210333D02*Y168300D01*
G54D244*X216500Y176800D02*Y168800D01*
Y188800D02*Y180800D01*
X230500Y176800D02*Y168800D01*
Y188800D02*Y180800D01*
X225500Y176800D02*X235500D01*
X225500Y180800D02*X235500D01*
X211500Y176800D02*X221500D01*
X211500Y180800D02*X221500D01*
G54D243*X42500Y179300D02*Y189300D01*
X42000Y240634D02*Y227300D01*
X48666Y240634D02*X35334D01*
X42000Y253967D01*
X48666D02*X35334D01*
X39167Y159300D02*Y179300D01*
X45833D02*Y159300D01*
Y179300D02*X39167D01*
X107500Y251800D02*Y321800D01*
X92500D02*X107500D01*
X96000Y336800D02*X106000D01*
X107500Y163300D02*Y233300D01*
X67500D02*X82500D01*
X92500D02*X107500D01*
Y251800D02*X67500D01*
X152500Y332300D02*Y252300D01*
Y332300D02*X167500D01*
X177500D02*X192500D01*
Y252300D02*Y332300D01*
G54D244*X201500Y315300D02*Y307300D01*
X196500Y315300D02*X206500D01*
X196500Y319300D02*X206500D01*
G54D243*X216500Y326800D02*Y336800D01*
X213167Y306800D02*Y326800D01*
G54D244*X201500Y327300D02*Y319300D01*
G54D243*X216500Y296800D02*Y306800D01*
X213167D02*X219833D01*
Y326800D02*Y306800D01*
Y326800D02*X213167D01*
X136500Y257800D02*Y271133D01*
X146500Y257800D02*Y271133D01*
X136500Y284466D02*Y297800D01*
X146500Y284466D02*Y297800D01*
G54D244*X141500Y315300D02*Y307300D01*
Y327300D02*Y319300D01*
X136500Y315300D02*X146500D01*
X136500Y319300D02*X146500D01*
G54D243*X129834Y284466D02*X143166D01*
X139834D02*X153166D01*
X129834D02*X136500Y271133D01*
X143166Y284466D02*X136500Y271133D01*
X129834D02*X143166D01*
X139834Y284466D02*X146500Y271133D01*
X153166Y284466D02*X146500Y271133D01*
X139834D02*X153166D01*
X76000Y340133D02*X96000D01*
Y333467D02*X76000D01*
X96000D02*Y340133D01*
X116500Y326800D02*Y336800D01*
Y296800D02*Y306800D01*
X113167D02*X119833D01*
X113167D02*Y326800D01*
X119833D02*Y306800D01*
Y326800D02*X113167D01*
X123667Y306800D02*Y326800D01*
X127000Y336800D02*Y326800D01*
Y306800D02*Y296800D01*
X123667Y306800D02*X130333D01*
Y326800D02*X123667D01*
X130333D02*Y306800D01*
X62000Y286800D02*Y296800D01*
X58667Y266800D02*Y286800D01*
X65333D02*X58667D01*
X62000Y256800D02*Y266800D01*
X58667D02*X65333D01*
Y286800D02*Y266800D01*
X42000Y267300D02*Y253967D01*
X48666Y240634D02*X42000Y253967D01*
X29800Y282900D02*X27700Y280800D01*
X26500Y282000D02*X27700Y280800D01*
X29200Y283500D02*X27100Y281400D01*
X28600Y284100D02*X26500Y282000D01*
X82500Y233300D02*G75*G03X92500Y233300I5000J0D01*G01*
X82500Y321800D02*G75*G03X92500Y321800I5000J0D01*G01*
X7642Y378800D02*G75*G03X25358Y378800I8858J0D01*G01*
Y378800D02*G75*G03X7642Y378800I-8858J0D01*G01*
X60800Y296800D02*G75*G03X24200Y296800I-18300J0D01*G01*
G75*G03X60800Y296800I18300J0D01*G01*
X167500Y233300D02*G75*G03X177500Y233300I5000J0D01*G01*
X167500Y332300D02*G75*G03X177500Y332300I5000J0D01*G01*
X222642Y378800D02*G75*G03X240358Y378800I8858J0D01*G01*
Y378800D02*G75*G03X222642Y378800I-8858J0D01*G01*
X47500Y124800D02*G75*G03X57500Y124800I5000J0D01*G01*
X117500D02*G75*G03X127500Y124800I5000J0D01*G01*
X167500Y134800D02*G75*G03X177500Y134800I5000J0D01*G01*
X7142Y13800D02*G75*G03X24858Y13800I8858J0D01*G01*
G75*G03X7142Y13800I-8858J0D01*G01*
X222642D02*G75*G03X240358Y13800I8858J0D01*G01*
G75*G03X222642Y13800I-8858J0D01*G01*
G54D245*X144400Y286133D02*X140000D01*
Y288278D01*
X140550Y288993D01*
X143850D01*
X144400Y288278D01*
Y286133D01*
X140550Y289653D02*X140000Y290368D01*
Y291798D01*
X140550Y292513D01*
X141650D01*
X142200Y291798D01*
Y290368D01*
Y291798D01*
X142750Y292513D01*
X143850D01*
X144400Y291798D01*
Y290368D01*
X143850Y289653D01*
X128900Y274133D02*X124500D01*
Y276278D01*
X125050Y276993D01*
X128350D01*
X128900Y276278D01*
Y274133D01*
X125050Y277653D02*X124500Y278368D01*
Y279798D01*
X125050Y280513D01*
X126150D01*
X127800Y277653D01*
X128900D01*
Y280513D01*
X64400Y268800D02*X60000D01*
Y270945D01*
X60550Y271660D01*
X61650D01*
X62200Y270945D01*
Y268800D01*
Y270230D01*
X64400Y271660D01*
X60550Y272320D02*X60000Y273035D01*
X64400D01*
Y272320D01*
Y273750D01*
Y275125D02*X63850Y274410D01*
X60550D01*
X60000Y275125D01*
Y276555D01*
X60550Y277270D01*
X63850D01*
X64400Y276555D01*
Y275125D01*
X60550Y277930D02*X60000D01*
Y280790D01*
X64400Y278645D01*
X48000Y286700D02*X51120D01*
Y287900D01*
X50340Y288500D01*
X48780D01*
X48000Y287900D01*
Y286100D01*
X48780Y285500D01*
X51120D01*
X218400Y307800D02*X214000D01*
Y309945D01*
X214550Y310660D01*
X215650D01*
X216200Y309945D01*
Y307800D01*
Y309230D01*
X218400Y310660D01*
X214550Y311320D02*X214000Y312035D01*
X218400D01*
Y311320D01*
Y312750D01*
Y314125D02*X217850Y313410D01*
X214550D01*
X214000Y314125D01*
Y315555D01*
X214550Y316270D01*
X217850D01*
X218400Y315555D01*
Y314125D01*
Y319075D02*X214000D01*
X217300Y316930D01*
Y319790D01*
X164500Y323300D02*Y316300D01*
X165800Y315300D01*
X168400D01*
X169700Y316300D01*
Y323300D01*
X170900Y322300D02*X172200Y323300D01*
Y315300D01*
X170900D01*
X173500D01*
X174700Y319300D02*X176000Y320300D01*
X178600D01*
X179900Y319300D01*
Y316300D01*
X178600Y315300D01*
X176000D01*
X174700Y316300D01*
Y322300D01*
X176000Y323300D01*
X178600D01*
X179900Y322300D01*
X49000Y368800D02*Y376800D01*
Y372800D01*
X54200D01*
Y376800D01*
Y368800D01*
X55400Y370800D02*X60600D01*
Y372800D01*
X59300Y373800D01*
X56700D01*
X55400Y372800D01*
Y369800D01*
X56700Y368800D01*
X60600D01*
X61800Y364800D02*X64400Y368800D01*
X61800Y373800D01*
X64400Y368800D01*
X67000Y373800D01*
X68200Y364800D02*Y373800D01*
X72100D01*
X73400Y372800D01*
Y369800D01*
X72100Y368800D01*
X68200D01*
X74600D02*Y376800D01*
Y373800D01*
X78500D01*
X79800Y372800D01*
Y368800D01*
X82300D02*X81000Y369800D01*
Y372800D01*
X82300Y373800D01*
X84900D01*
X86200Y372800D01*
Y369800D01*
X84900Y368800D01*
X82300D01*
X87400D02*Y373800D01*
Y372800D01*
X91300Y373800D01*
X92600Y372800D01*
Y368800D01*
X93800Y370800D02*X99000D01*
Y372800D01*
X97700Y373800D01*
X95100D01*
X93800Y372800D01*
Y369800D01*
X95100Y368800D01*
X99000D01*
X107800Y375800D02*X106500Y376800D01*
X103900D01*
X102600Y375800D01*
Y369800D01*
X103900Y368800D01*
X106500D01*
X107800Y369800D01*
X110300Y368800D02*X109000Y369800D01*
Y372800D01*
X110300Y373800D01*
X112900D01*
X114200Y372800D01*
Y369800D01*
X112900Y368800D01*
X110300D01*
X115400D02*Y373800D01*
Y372800D01*
X119300Y373800D01*
X120600Y372800D01*
Y368800D01*
X121800Y373800D02*X125700D01*
X123100D01*
Y375800D01*
Y369800D01*
X124400Y368800D01*
X125700D01*
X127000Y369800D01*
X128200Y368800D02*Y373800D01*
Y372800D01*
X130800Y373800D01*
X132100D01*
X133400Y372800D01*
X135900Y368800D02*X134600Y369800D01*
Y372800D01*
X135900Y373800D01*
X138500D01*
X139800Y372800D01*
Y369800D01*
X138500Y368800D01*
X135900D01*
X141000Y376800D02*X142300D01*
Y368800D01*
X141000D01*
X143600D01*
X147200D02*Y376800D01*
X151100D01*
X152400Y375800D01*
Y373800D01*
X151100Y372800D01*
X147200D01*
X151100D01*
X152400Y371800D01*
Y369800D01*
X151100Y368800D01*
X147200D01*
X154900D02*X153600Y369800D01*
Y372800D01*
X154900Y373800D01*
X157500D01*
X158800Y372800D01*
Y369800D01*
X157500Y368800D01*
X154900D01*
X165200Y369800D02*X162600Y368800D01*
X161300D01*
X160000Y369800D01*
Y372800D01*
X162600Y373800D01*
X165200D01*
Y368800D01*
X166400D02*Y373800D01*
Y372800D01*
X169000Y373800D01*
X170300D01*
X171600Y372800D01*
X178000Y376800D02*Y368800D01*
X174100D01*
X172800Y369800D01*
Y372800D01*
X174100Y373800D01*
X178000D01*
X181600D02*X184200Y368800D01*
X186800Y373800D01*
X188000Y375800D02*X189300Y376800D01*
X191900D01*
X193200Y375800D01*
Y373800D01*
X188000Y370800D01*
Y368800D01*
X193200D01*
X194400D02*Y369800D01*
X195700D01*
Y368800D01*
X194400D01*
X198200D02*X196900Y369800D01*
Y375800D01*
X198200Y376800D01*
X200800D01*
X202100Y375800D01*
Y369800D01*
X200800Y368800D01*
X198200D01*
X57000Y354300D02*Y359300D01*
Y358300D01*
X59600Y359300D01*
Y354300D01*
Y358300D01*
X62200Y359300D01*
Y354300D01*
X68600Y355300D02*X66000Y354300D01*
X64700D01*
X63400Y355300D01*
Y358300D01*
X66000Y359300D01*
X68600D01*
Y354300D01*
X75000Y362300D02*Y354300D01*
X71100D01*
X69800Y355300D01*
Y358300D01*
X71100Y359300D01*
X75000D01*
X76200Y356300D02*X81400D01*
Y358300D01*
X80100Y359300D01*
X77500D01*
X76200Y358300D01*
Y355300D01*
X77500Y354300D01*
X81400D01*
X86300Y361300D03*
X85000Y359300D02*X86300D01*
Y354300D01*
X85000D01*
X87600D01*
X88800D02*Y359300D01*
Y358300D01*
X92700Y359300D01*
X94000Y358300D01*
Y354300D01*
X97600Y350300D02*Y359300D01*
X101500D01*
X102800Y358300D01*
Y355300D01*
X101500Y354300D01*
X97600D01*
X109200Y358300D02*X107900Y359300D01*
X105300D01*
X104000Y358300D01*
Y355300D01*
X105300Y354300D01*
X107900D01*
X109200Y355300D01*
X110400Y362300D02*Y354300D01*
X114300D01*
X115600Y355300D01*
Y358300D01*
X114300Y359300D01*
X110400D01*
X116800Y358300D02*X122000D01*
X123200Y354300D02*Y359300D01*
Y358300D01*
X125800Y359300D01*
X127100D01*
X128400Y358300D01*
X129600Y354300D02*Y359300D01*
Y358300D01*
X133500Y359300D01*
X134800Y358300D01*
Y354300D01*
X141200Y362300D02*Y354300D01*
X137300D01*
X136000Y355300D01*
Y358300D01*
X137300Y359300D01*
X141200D01*
X144800Y362300D02*Y354300D01*
X148700D01*
X150000Y355300D01*
Y358300D01*
X148700Y359300D01*
X144800D01*
X151200Y350300D02*X153800Y354300D01*
X151200Y359300D01*
X153800Y354300D01*
X156400Y359300D01*
X160000Y362300D02*X162600Y354300D01*
X165200Y362300D01*
X166400D02*Y354300D01*
Y356300D01*
X171600Y362300D01*
X169000Y359300D01*
X171600Y354300D01*
X172800Y355300D02*X174100Y354300D01*
X176700D01*
X178000Y355300D01*
Y358300D01*
X176700Y359300D01*
X172800D01*
Y362300D01*
X178000D01*
X179200Y354300D02*Y362300D01*
Y358300D01*
X184400D01*
Y362300D01*
Y354300D01*
X185600Y355300D02*X186900Y354300D01*
X189500D01*
X190800Y355300D01*
Y357300D01*
X189500Y358300D01*
X186900D01*
X185600Y359300D01*
Y361300D01*
X186900Y362300D01*
X189500D01*
X190800Y361300D01*
X197200Y362300D02*X192000D01*
Y358300D01*
X195900D01*
X192000D01*
Y354300D01*
X197200D01*
X79500Y225300D02*Y218300D01*
X80800Y217300D01*
X83400D01*
X84700Y218300D01*
Y225300D01*
X85900Y224300D02*X87200Y225300D01*
Y217300D01*
X85900D01*
X88500D01*
X91000Y221300D02*X89700Y222300D01*
Y224300D01*
X91000Y225300D01*
X93600D01*
X94900Y224300D01*
Y222300D01*
X93600Y221300D01*
X91000D01*
X89700Y220300D01*
Y218300D01*
X91000Y217300D01*
X93600D01*
X94900Y218300D01*
Y220300D01*
X93600Y221300D01*
X122200Y234300D02*X120900Y235300D01*
X118300D01*
X117000Y234300D01*
Y228300D01*
X118300Y227300D01*
X120900D01*
X122200Y228300D01*
X207000Y261300D02*X208300Y262300D01*
Y254300D01*
X207000D01*
X209600D01*
X210800Y261300D02*X212100Y262300D01*
X214700D01*
X216000Y261300D01*
Y259300D01*
X210800Y256300D01*
Y254300D01*
X216000D01*
X217200Y262300D02*X219800Y254300D01*
X222400Y262300D01*
X78000Y334400D02*Y338800D01*
X80145D01*
X80860Y338250D01*
Y337150D01*
X80145Y336600D01*
X78000D01*
X79430D01*
X80860Y334400D01*
X81520Y338250D02*X82235Y338800D01*
Y334400D01*
X81520D01*
X82950D01*
X84325D02*X83610Y334950D01*
Y338250D01*
X84325Y338800D01*
X85755D01*
X86470Y338250D01*
Y334950D01*
X85755Y334400D01*
X84325D01*
X87130Y338250D02*X87845Y338800D01*
X89275D01*
X89990Y338250D01*
Y337150D01*
X89275Y336600D01*
X87845D01*
X89275D01*
X89990Y336050D01*
Y334950D01*
X89275Y334400D01*
X87845D01*
X87130Y334950D01*
X79500Y312800D02*Y305800D01*
X80800Y304800D01*
X83400D01*
X84700Y305800D01*
Y312800D01*
X85900Y311800D02*X87200Y312800D01*
Y304800D01*
X85900D01*
X88500D01*
X89700Y305800D02*X91000Y304800D01*
X93600D01*
X94900Y305800D01*
Y308800D01*
X93600Y309800D01*
X89700D01*
Y312800D01*
X94900D01*
X44000Y299800D02*Y295000D01*
X46340D01*
X47120Y295600D01*
Y297400D01*
X46340Y298000D01*
X44000D01*
X51120Y307400D02*X50340Y308000D01*
X48780D01*
X48000Y307400D01*
Y305600D01*
X48780Y305000D01*
X50340D01*
X51120Y305600D01*
X44500Y115300D02*Y108300D01*
X45800Y107300D01*
X48400D01*
X49700Y108300D01*
Y115300D01*
X50900Y114300D02*X52200Y115300D01*
X54800D01*
X56100Y114300D01*
Y112300D01*
X50900Y109300D01*
Y107300D01*
X56100D01*
X57300Y114300D02*X58600Y115300D01*
Y107300D01*
X57300D01*
X59900D01*
X79900Y110800D02*X75500D01*
Y112945D01*
X76050Y113660D01*
X77150D01*
X77700Y112945D01*
Y110800D01*
Y112230D01*
X79900Y113660D01*
X76050Y114320D02*X75500Y115035D01*
X79900D01*
Y114320D01*
Y115750D01*
X76050Y116410D02*X75500Y117125D01*
X79900D01*
Y116410D01*
Y117840D01*
X76050Y118500D02*X75500D01*
Y121360D01*
X79900Y119215D01*
X90400Y110300D02*X86000D01*
Y112445D01*
X86550Y113160D01*
X87650D01*
X88200Y112445D01*
Y110300D01*
Y111730D01*
X90400Y113160D01*
X86550Y113820D02*X86000Y114535D01*
X90400D01*
Y113820D01*
Y115250D01*
X86550Y115910D02*X86000Y116625D01*
X90400D01*
Y115910D01*
Y117340D01*
X88200Y118000D02*X87650Y118715D01*
Y120145D01*
X88200Y120860D01*
X89850D01*
X90400Y120145D01*
Y118715D01*
X89850Y118000D01*
X86550D01*
X86000Y118715D01*
Y120145D01*
X86550Y120860D01*
X40000Y126900D02*Y131300D01*
X42145D01*
X42860Y130750D01*
Y129650D01*
X42145Y129100D01*
X40000D01*
X41430D01*
X42860Y126900D01*
X43520Y130750D02*X44235Y131300D01*
Y126900D01*
X43520D01*
X44950D01*
X45610Y130750D02*X46325Y131300D01*
Y126900D01*
X45610D01*
X47040D01*
X47700Y127450D02*X48415Y126900D01*
X49845D01*
X50560Y127450D01*
Y130750D01*
X49845Y131300D01*
X48415D01*
X47700Y130750D01*
Y129100D01*
X48415Y128550D01*
X49845D01*
X50560Y129100D01*
X60360Y148250D02*X59645Y148800D01*
X58215D01*
X57500Y148250D01*
Y144950D01*
X58215Y144400D01*
X59645D01*
X60360Y144950D01*
X61020D02*X61735Y144400D01*
X63165D01*
X63880Y144950D01*
Y146600D01*
X63165Y147150D01*
X61020D01*
Y148800D01*
X63880D01*
X64540Y144950D02*X65255Y144400D01*
X66685D01*
X67400Y144950D01*
Y146600D01*
X66685Y147150D01*
X64540D01*
Y148800D01*
X67400D01*
X28000Y89300D02*Y82300D01*
X29300Y81300D01*
X31900D01*
X33200Y82300D01*
Y89300D01*
X35700Y81300D02*X34400Y82300D01*
Y88300D01*
X35700Y89300D01*
X38300D01*
X39600Y88300D01*
Y82300D01*
X38300Y81300D01*
X35700D01*
X90400Y61800D02*X86000D01*
Y63945D01*
X86550Y64660D01*
X87650D01*
X88200Y63945D01*
Y61800D01*
Y63230D01*
X90400Y64660D01*
X86550Y65320D02*X86000Y66035D01*
X90400D01*
Y65320D01*
Y66750D01*
X86550Y67410D02*X86000Y68125D01*
X90400D01*
Y67410D01*
Y68840D01*
X86550Y69500D02*X86000Y70215D01*
Y71645D01*
X86550Y72360D01*
X87650D01*
X88200Y71645D01*
Y70215D01*
Y71645D01*
X88750Y72360D01*
X89850D01*
X90400Y71645D01*
Y70215D01*
X89850Y69500D01*
X28500Y49800D02*Y42800D01*
X29800Y41800D01*
X32400D01*
X33700Y42800D01*
Y49800D01*
X36200Y41800D02*X34900Y42800D01*
Y48800D01*
X36200Y49800D01*
X38800D01*
X40100Y48800D01*
Y42800D01*
X38800Y41800D01*
X36200D01*
X44900Y161300D02*X40500D01*
Y163445D01*
X41050Y164160D01*
X42150D01*
X42700Y163445D01*
Y161300D01*
Y162730D01*
X44900Y164160D01*
X41050Y164820D02*X40500Y165535D01*
X44900D01*
Y164820D01*
Y166250D01*
X41050Y166910D02*X40500Y167625D01*
X44900D01*
Y166910D01*
Y168340D01*
X42700Y169715D02*X42150Y169000D01*
X41050D01*
X40500Y169715D01*
Y171145D01*
X41050Y171860D01*
X42150D01*
X42700Y171145D01*
Y169715D01*
X43250Y169000D01*
X44350D01*
X44900Y169715D01*
Y171145D01*
X44350Y171860D01*
X43250D01*
X42700Y171145D01*
X13000Y140300D02*Y148300D01*
X16900D01*
X18200Y147300D01*
Y145300D01*
X16900Y144300D01*
X13000D01*
X16900D01*
X18200Y143300D01*
Y141300D01*
X16900Y140300D01*
X13000D01*
X217550Y52660D02*X217000Y51945D01*
Y50515D01*
X217550Y49800D01*
X220850D01*
X221400Y50515D01*
Y51945D01*
X220850Y52660D01*
Y53320D02*X221400Y54035D01*
Y55465D01*
X220850Y56180D01*
X219200D01*
X218650Y55465D01*
Y53320D01*
X217000D01*
Y56180D01*
X219200Y56840D02*X218650Y57555D01*
Y58985D01*
X219200Y59700D01*
X220850D01*
X221400Y58985D01*
Y57555D01*
X220850Y56840D01*
X217550D01*
X217000Y57555D01*
Y58985D01*
X217550Y59700D01*
X102900Y128133D02*X98500D01*
Y130278D01*
X99050Y130993D01*
X102350D01*
X102900Y130278D01*
Y128133D01*
X100700Y131653D02*X100150Y132368D01*
Y133798D01*
X100700Y134513D01*
X102350D01*
X102900Y133798D01*
Y132368D01*
X102350Y131653D01*
X99050D01*
X98500Y132368D01*
Y133798D01*
X99050Y134513D01*
X96050Y47660D02*X95500Y46945D01*
Y45515D01*
X96050Y44800D01*
X99350D01*
X99900Y45515D01*
Y46945D01*
X99350Y47660D01*
Y48320D02*X99900Y49035D01*
Y50465D01*
X99350Y51180D01*
X97700D01*
X97150Y50465D01*
Y48320D01*
X95500D01*
Y51180D01*
X96050Y51840D02*X95500Y52555D01*
Y53985D01*
X96050Y54700D01*
X97150D01*
X97700Y53985D01*
Y52555D01*
Y53985D01*
X98250Y54700D01*
X99350D01*
X99900Y53985D01*
Y52555D01*
X99350Y51840D01*
X165000Y125300D02*Y118300D01*
X166300Y117300D01*
X168900D01*
X170200Y118300D01*
Y125300D01*
X171400Y124300D02*X172700Y125300D01*
Y117300D01*
X171400D01*
X174000D01*
X175200Y118300D02*X176500Y117300D01*
X179100D01*
X180400Y118300D01*
Y124300D01*
X179100Y125300D01*
X176500D01*
X175200Y124300D01*
Y121300D01*
X176500Y120300D01*
X179100D01*
X180400Y121300D01*
X113500Y116800D02*Y109800D01*
X114800Y108800D01*
X117400D01*
X118700Y109800D01*
Y116800D01*
X119900Y115800D02*X121200Y116800D01*
X123800D01*
X125100Y115800D01*
Y113800D01*
X119900Y110800D01*
Y108800D01*
X125100D01*
X127600D02*X126300Y109800D01*
Y115800D01*
X127600Y116800D01*
X130200D01*
X131500Y115800D01*
Y109800D01*
X130200Y108800D01*
X127600D01*
X218500Y26300D02*X221100Y34300D01*
X222400Y30300D01*
X219800D01*
X222400D01*
X223700Y26300D01*
X121000Y137400D02*Y141800D01*
X123145D01*
X123860Y141250D01*
Y140150D01*
X123145Y139600D01*
X121000D01*
X122430D01*
X123860Y137400D01*
X124520Y141250D02*X125235Y141800D01*
Y137400D01*
X124520D01*
X125950D01*
X126610Y141250D02*X127325Y141800D01*
Y137400D01*
X126610D01*
X128040D01*
X130845D02*Y141800D01*
X128700Y138500D01*
X131560D01*
X120500Y145900D02*Y150300D01*
X122645D01*
X123360Y149750D01*
Y148650D01*
X122645Y148100D01*
X120500D01*
X121930D01*
X123360Y145900D01*
X124020Y149750D02*X124735Y150300D01*
Y145900D01*
X124020D01*
X125450D01*
X126110Y149750D02*X126825Y150300D01*
Y145900D01*
X126110D01*
X127540D01*
X128200Y146450D02*X128915Y145900D01*
X130345D01*
X131060Y146450D01*
Y148100D01*
X130345Y148650D01*
X128200D01*
Y150300D01*
X131060D01*
X117600Y183467D02*X122000D01*
Y181322D01*
X121450Y180607D01*
X118150D01*
X117600Y181322D01*
Y183467D01*
X119800Y179232D02*X120350Y179947D01*
X121450D01*
X122000Y179232D01*
Y177802D01*
X121450Y177087D01*
X120350D01*
X119800Y177802D01*
Y179232D01*
X119250Y179947D01*
X118150D01*
X117600Y179232D01*
Y177802D01*
X118150Y177087D01*
X119250D01*
X119800Y177802D01*
X138050Y166660D02*X137500Y165945D01*
Y164515D01*
X138050Y163800D01*
X141350D01*
X141900Y164515D01*
Y165945D01*
X141350Y166660D01*
Y167320D02*X141900Y168035D01*
Y169465D01*
X141350Y170180D01*
X139700D01*
X139150Y169465D01*
Y167320D01*
X137500D01*
Y170180D01*
X141900Y172985D02*X137500D01*
X140800Y170840D01*
Y173700D01*
X139400Y200300D02*X135000D01*
Y202445D01*
X135550Y203160D01*
X136650D01*
X137200Y202445D01*
Y200300D01*
Y201730D01*
X139400Y203160D01*
X135550Y203820D02*X135000Y204535D01*
X139400D01*
Y203820D01*
Y205250D01*
Y206625D02*X138850Y205910D01*
X135550D01*
X135000Y206625D01*
Y208055D01*
X135550Y208770D01*
X138850D01*
X139400Y208055D01*
Y206625D01*
X138850Y209430D02*X139400Y210145D01*
Y211575D01*
X138850Y212290D01*
X135550D01*
X135000Y211575D01*
Y210145D01*
X135550Y209430D01*
X137200D01*
X137750Y210145D01*
Y211575D01*
X137200Y212290D01*
X149400Y200300D02*X145000D01*
Y202445D01*
X145550Y203160D01*
X146650D01*
X147200Y202445D01*
Y200300D01*
Y201730D01*
X149400Y203160D01*
X145550Y203820D02*X145000Y204535D01*
X149400D01*
Y203820D01*
Y205250D01*
Y206625D02*X148850Y205910D01*
X145550D01*
X145000Y206625D01*
Y208055D01*
X145550Y208770D01*
X148850D01*
X149400Y208055D01*
Y206625D01*
X147200Y210145D02*X146650Y209430D01*
X145550D01*
X145000Y210145D01*
Y211575D01*
X145550Y212290D01*
X146650D01*
X147200Y211575D01*
Y210145D01*
X147750Y209430D01*
X148850D01*
X149400Y210145D01*
Y211575D01*
X148850Y212290D01*
X147750D01*
X147200Y211575D01*
X228900Y210300D02*X224500D01*
Y212445D01*
X225050Y213160D01*
X226150D01*
X226700Y212445D01*
Y210300D01*
Y211730D01*
X228900Y213160D01*
X225050Y213820D02*X224500Y214535D01*
X228900D01*
Y213820D01*
Y215250D01*
X225050Y215910D02*X224500Y216625D01*
Y218055D01*
X225050Y218770D01*
X226150D01*
X227800Y215910D01*
X228900D01*
Y218770D01*
X225050Y219430D02*X224500Y220145D01*
X228900D01*
Y219430D01*
Y220860D01*
X218900Y210300D02*X214500D01*
Y212445D01*
X215050Y213160D01*
X216150D01*
X216700Y212445D01*
Y210300D01*
Y211730D01*
X218900Y213160D01*
X215050Y213820D02*X214500Y214535D01*
X218900D01*
Y213820D01*
Y215250D01*
X215050Y215910D02*X214500Y216625D01*
Y218055D01*
X215050Y218770D01*
X216150D01*
X217800Y215910D01*
X218900D01*
Y218770D01*
Y220145D02*X218350Y219430D01*
X215050D01*
X214500Y220145D01*
Y221575D01*
X215050Y222290D01*
X218350D01*
X218900Y221575D01*
Y220145D01*
X204600Y186300D02*X209000D01*
Y184155D01*
X208450Y183440D01*
X207350D01*
X206800Y184155D01*
Y186300D01*
Y184870D01*
X204600Y183440D01*
X208450Y182780D02*X209000Y182065D01*
X204600D01*
Y182780D01*
Y181350D01*
X208450Y180690D02*X209000Y179975D01*
X204600D01*
Y180690D01*
Y179260D01*
Y177885D02*X205150Y178600D01*
X208450D01*
X209000Y177885D01*
Y176455D01*
X208450Y175740D01*
X205150D01*
X204600Y176455D01*
Y177885D01*
X194600Y186300D02*X199000D01*
Y184155D01*
X198450Y183440D01*
X197350D01*
X196800Y184155D01*
Y186300D01*
Y184870D01*
X194600Y183440D01*
X198450Y182780D02*X199000Y182065D01*
X194600D01*
Y182780D01*
Y181350D01*
X198450Y180690D02*X199000Y179975D01*
X194600D01*
Y180690D01*
Y179260D01*
X198450Y178600D02*X199000Y177885D01*
X194600D01*
Y178600D01*
Y177170D01*
X163500Y224800D02*Y217800D01*
X164800Y216800D01*
X167400D01*
X168700Y217800D01*
Y224800D01*
X169900Y223800D02*X171200Y224800D01*
Y216800D01*
X169900D01*
X172500D01*
X173700Y223800D02*Y224800D01*
X178900D01*
X175000Y216800D01*
X229050Y154660D02*X228500Y153945D01*
Y152515D01*
X229050Y151800D01*
X232350D01*
X232900Y152515D01*
Y153945D01*
X232350Y154660D01*
Y155320D02*X232900Y156035D01*
Y157465D01*
X232350Y158180D01*
X230700D01*
X230150Y157465D01*
Y155320D01*
X228500D01*
Y158180D01*
X230700Y159555D02*X230150Y158840D01*
X229050D01*
X228500Y159555D01*
Y160985D01*
X229050Y161700D01*
X230150D01*
X230700Y160985D01*
Y159555D01*
X231250Y158840D01*
X232350D01*
X232900Y159555D01*
Y160985D01*
X232350Y161700D01*
X231250D01*
X230700Y160985D01*
X215550Y155660D02*X215000Y154945D01*
Y153515D01*
X215550Y152800D01*
X218850D01*
X219400Y153515D01*
Y154945D01*
X218850Y155660D01*
Y156320D02*X219400Y157035D01*
Y158465D01*
X218850Y159180D01*
X217200D01*
X216650Y158465D01*
Y156320D01*
X215000D01*
Y159180D01*
X215550Y159840D02*X215000D01*
Y162700D01*
X219400Y160555D01*
X157833Y141400D02*Y145800D01*
X159978D01*
X160693Y145250D01*
Y141950D01*
X159978Y141400D01*
X157833D01*
X163498D02*Y145800D01*
X161353Y142500D01*
X164213D01*
X157833Y150900D02*Y155300D01*
X159978D01*
X160693Y154750D01*
Y151450D01*
X159978Y150900D01*
X157833D01*
X161353Y151450D02*X162068Y150900D01*
X163498D01*
X164213Y151450D01*
Y153100D01*
X163498Y153650D01*
X161353D01*
Y155300D01*
X164213D01*
X118900Y308800D02*X114500D01*
Y310945D01*
X115050Y311660D01*
X116150D01*
X116700Y310945D01*
Y308800D01*
Y310230D01*
X118900Y311660D01*
X115050Y312320D02*X114500Y313035D01*
X118900D01*
Y312320D01*
Y313750D01*
Y315125D02*X118350Y314410D01*
X115050D01*
X114500Y315125D01*
Y316555D01*
X115050Y317270D01*
X118350D01*
X118900Y316555D01*
Y315125D01*
X118350Y317930D02*X118900Y318645D01*
Y320075D01*
X118350Y320790D01*
X116700D01*
X116150Y320075D01*
Y317930D01*
X114500D01*
Y320790D01*
X128900Y308800D02*X124500D01*
Y310945D01*
X125050Y311660D01*
X126150D01*
X126700Y310945D01*
Y308800D01*
Y310230D01*
X128900Y311660D01*
X125050Y312320D02*X124500Y313035D01*
X128900D01*
Y312320D01*
Y313750D01*
Y315125D02*X128350Y314410D01*
X125050D01*
X124500Y315125D01*
Y316555D01*
X125050Y317270D01*
X128350D01*
X128900Y316555D01*
Y315125D01*
X126700Y317930D02*X126150Y318645D01*
Y320075D01*
X126700Y320790D01*
X128350D01*
X128900Y320075D01*
Y318645D01*
X128350Y317930D01*
X125050D01*
X124500Y318645D01*
Y320075D01*
X125050Y320790D01*
X140550Y337660D02*X140000Y336945D01*
Y335515D01*
X140550Y334800D01*
X143850D01*
X144400Y335515D01*
Y336945D01*
X143850Y337660D01*
Y338320D02*X144400Y339035D01*
Y340465D01*
X143850Y341180D01*
X142200D01*
X141650Y340465D01*
Y338320D01*
X140000D01*
Y341180D01*
X140550Y341840D02*X140000Y342555D01*
X144400D01*
Y341840D01*
Y343270D01*
X198050Y338160D02*X197500Y337445D01*
Y336015D01*
X198050Y335300D01*
X201350D01*
X201900Y336015D01*
Y337445D01*
X201350Y338160D01*
Y338820D02*X201900Y339535D01*
Y340965D01*
X201350Y341680D01*
X199700D01*
X199150Y340965D01*
Y338820D01*
X197500D01*
Y341680D01*
X198050Y342340D02*X197500Y343055D01*
Y344485D01*
X198050Y345200D01*
X199150D01*
X200800Y342340D01*
X201900D01*
Y345200D01*
X31900Y235633D02*X27500D01*
Y237778D01*
X28050Y238493D01*
X31350D01*
X31900Y237778D01*
Y235633D01*
X28050Y239153D02*X27500D01*
Y242013D01*
X31900Y239868D01*
X26500Y340300D02*Y348300D01*
X30400D01*
X31700Y347300D01*
Y345300D01*
X30400Y344300D01*
X26500D01*
Y322300D02*Y330300D01*
X30400D01*
X31700Y329300D01*
Y327300D01*
X30400Y326300D01*
X26500D01*
X29100D01*
X31700Y322300D01*
X22215Y310400D02*X21500Y310950D01*
Y314250D01*
X22215Y314800D01*
X23645D01*
X24360Y314250D01*
Y310950D01*
X23645Y310400D01*
X22215D01*
X22930Y311500D02*X24360Y310400D01*
X25020Y310950D02*X25735Y310400D01*
X27165D01*
X27880Y310950D01*
Y312600D01*
X27165Y313150D01*
X25020D01*
Y314800D01*
X27880D01*
X7300Y214800D02*X6000Y215800D01*
Y221800D01*
X7300Y222800D01*
X9900D01*
X11200Y221800D01*
Y215800D01*
X9900Y214800D01*
X7300D01*
X12400Y222800D02*X15000Y214800D01*
X17600Y222800D01*
M02*
